<?xml version="1.0" encoding="utf-8" standalone="no"?>
<!DOCTYPE svg PUBLIC "-//W3C//DTD SVG 1.1//EN"
  "http://www.w3.org/Graphics/SVG/1.1/DTD/svg11.dtd">
<svg xmlns:xlink="http://www.w3.org/1999/xlink" width="691.2pt" height="388.8pt" viewBox="0 0 691.2 388.8" xmlns="http://www.w3.org/2000/svg" version="1.1">
 <metadata>
  <rdf:RDF xmlns:dc="http://purl.org/dc/elements/1.1/" xmlns:cc="http://creativecommons.org/ns#" xmlns:rdf="http://www.w3.org/1999/02/22-rdf-syntax-ns#">
   <cc:Work>
    <dc:type rdf:resource="http://purl.org/dc/dcmitype/StillImage"/>
    <dc:date>2026-07-14T01:06:27.983118</dc:date>
    <dc:format>image/svg+xml</dc:format>
    <dc:creator>
     <cc:Agent>
      <dc:title>Matplotlib v3.11.0, https://matplotlib.org/</dc:title>
     </cc:Agent>
    </dc:creator>
   </cc:Work>
  </rdf:RDF>
 </metadata>
 <defs>
  <style type="text/css">*{stroke-linejoin: round; stroke-linecap: butt}</style>
 </defs>
 <g id="figure_1">
  <g id="patch_1">
   <path d="M 0 388.8 
L 691.2 388.8 
L 691.2 0 
L 0 0 
z
" style="fill: #fdfdfd"/>
  </g>
  <g id="axes_1">
   <g id="patch_2">
    <path d="M 50.4505 189.26125 
L 515.872965 189.26125 
L 515.872965 71.6275 
L 50.4505 71.6275 
z
" style="fill: #ffffff"/>
   </g>
   <g id="patch_3">
    <path d="M 71.606067 189.26125 
L 79.51469 189.26125 
L 79.51469 178.058036 
L 71.606067 178.058036 
z
" clip-path="url(#p6fbd6c1e7e)" style="fill: #3b82f6"/>
   </g>
   <g id="patch_4">
    <path d="M 81.491845 189.26125 
L 89.400468 189.26125 
L 89.400468 124.842768 
L 81.491845 124.842768 
z
" clip-path="url(#p6fbd6c1e7e)" style="fill: #3b82f6"/>
   </g>
   <g id="patch_5">
    <path d="M 91.377624 189.26125 
L 99.286247 189.26125 
L 99.286247 158.452411 
L 91.377624 158.452411 
z
" clip-path="url(#p6fbd6c1e7e)" style="fill: #3b82f6"/>
   </g>
   <g id="patch_6">
    <path d="M 101.263403 189.26125 
L 109.172026 189.26125 
L 109.172026 150.05 
L 101.263403 150.05 
z
" clip-path="url(#p6fbd6c1e7e)" style="fill: #3b82f6"/>
   </g>
   <g id="patch_7">
    <path d="M 111.149182 189.26125 
L 119.057805 189.26125 
L 119.057805 155.651607 
L 111.149182 155.651607 
z
" clip-path="url(#p6fbd6c1e7e)" style="fill: #3b82f6"/>
   </g>
   <g id="patch_8">
    <path d="M 121.034961 189.26125 
L 128.943584 189.26125 
L 128.943584 124.842768 
L 121.034961 124.842768 
z
" clip-path="url(#p6fbd6c1e7e)" style="fill: #3b82f6"/>
   </g>
   <g id="patch_9">
    <path d="M 130.920739 189.26125 
L 138.829362 189.26125 
L 138.829362 155.651607 
L 130.920739 155.651607 
z
" clip-path="url(#p6fbd6c1e7e)" style="fill: #3b82f6"/>
   </g>
   <g id="patch_10">
    <path d="M 140.806518 189.26125 
L 148.715141 189.26125 
L 148.715141 144.448393 
L 140.806518 144.448393 
z
" clip-path="url(#p6fbd6c1e7e)" style="fill: #3b82f6"/>
   </g>
   <g id="patch_11">
    <path d="M 150.692297 189.26125 
L 158.60092 189.26125 
L 158.60092 158.452411 
L 150.692297 158.452411 
z
" clip-path="url(#p6fbd6c1e7e)" style="fill: #3b82f6"/>
   </g>
   <g id="patch_12">
    <path d="M 160.578076 189.26125 
L 168.486699 189.26125 
L 168.486699 141.647589 
L 160.578076 141.647589 
z
" clip-path="url(#p6fbd6c1e7e)" style="fill: #3b82f6"/>
   </g>
   <g id="patch_13">
    <path d="M 170.463854 189.26125 
L 178.372477 189.26125 
L 178.372477 155.651607 
L 170.463854 155.651607 
z
" clip-path="url(#p6fbd6c1e7e)" style="fill: #3b82f6"/>
   </g>
   <g id="patch_14">
    <path d="M 180.349633 189.26125 
L 188.258256 189.26125 
L 188.258256 136.045982 
L 180.349633 136.045982 
z
" clip-path="url(#p6fbd6c1e7e)" style="fill: #3b82f6"/>
   </g>
   <g id="patch_15">
    <path d="M 190.235412 189.26125 
L 198.144035 189.26125 
L 198.144035 147.249196 
L 190.235412 147.249196 
z
" clip-path="url(#p6fbd6c1e7e)" style="fill: #3b82f6"/>
   </g>
   <g id="patch_16">
    <path d="M 200.121191 189.26125 
L 208.029814 189.26125 
L 208.029814 136.045982 
L 200.121191 136.045982 
z
" clip-path="url(#p6fbd6c1e7e)" style="fill: #3b82f6"/>
   </g>
   <g id="patch_17">
    <path d="M 210.00697 189.26125 
L 217.915593 189.26125 
L 217.915593 124.842768 
L 210.00697 124.842768 
z
" clip-path="url(#p6fbd6c1e7e)" style="fill: #3b82f6"/>
   </g>
   <g id="patch_18">
    <path d="M 219.892748 189.26125 
L 227.801371 189.26125 
L 227.801371 133.245179 
L 219.892748 133.245179 
z
" clip-path="url(#p6fbd6c1e7e)" style="fill: #3b82f6"/>
   </g>
   <g id="patch_19">
    <path d="M 229.778527 189.26125 
L 237.68715 189.26125 
L 237.68715 150.05 
L 229.778527 150.05 
z
" clip-path="url(#p6fbd6c1e7e)" style="fill: #3b82f6"/>
   </g>
   <g id="patch_20">
    <path d="M 239.664306 189.26125 
L 247.572929 189.26125 
L 247.572929 178.058036 
L 239.664306 178.058036 
z
" clip-path="url(#p6fbd6c1e7e)" style="fill: #3b82f6"/>
   </g>
   <g id="patch_21">
    <path d="M 249.550085 189.26125 
L 257.458708 189.26125 
L 257.458708 169.655625 
L 249.550085 169.655625 
z
" clip-path="url(#p6fbd6c1e7e)" style="fill: #3b82f6"/>
   </g>
   <g id="patch_22">
    <path d="M 259.435864 189.26125 
L 267.344487 189.26125 
L 267.344487 150.05 
L 259.435864 150.05 
z
" clip-path="url(#p6fbd6c1e7e)" style="fill: #3b82f6"/>
   </g>
   <g id="patch_23">
    <path d="M 269.321642 189.26125 
L 277.230265 189.26125 
L 277.230265 166.854821 
L 269.321642 166.854821 
z
" clip-path="url(#p6fbd6c1e7e)" style="fill: #3b82f6"/>
   </g>
   <g id="patch_24">
    <path d="M 279.207421 189.26125 
L 287.116044 189.26125 
L 287.116044 136.045982 
L 279.207421 136.045982 
z
" clip-path="url(#p6fbd6c1e7e)" style="fill: #3b82f6"/>
   </g>
   <g id="patch_25">
    <path d="M 289.0932 189.26125 
L 297.001823 189.26125 
L 297.001823 161.253214 
L 289.0932 161.253214 
z
" clip-path="url(#p6fbd6c1e7e)" style="fill: #3b82f6"/>
   </g>
   <g id="patch_26">
    <path d="M 298.978979 189.26125 
L 306.887602 189.26125 
L 306.887602 175.257232 
L 298.978979 175.257232 
z
" clip-path="url(#p6fbd6c1e7e)" style="fill: #3b82f6"/>
   </g>
   <g id="patch_27">
    <path d="M 308.864757 189.26125 
L 316.77338 189.26125 
L 316.77338 155.651607 
L 308.864757 155.651607 
z
" clip-path="url(#p6fbd6c1e7e)" style="fill: #3b82f6"/>
   </g>
   <g id="patch_28">
    <path d="M 318.750536 189.26125 
L 326.659159 189.26125 
L 326.659159 164.054018 
L 318.750536 164.054018 
z
" clip-path="url(#p6fbd6c1e7e)" style="fill: #3b82f6"/>
   </g>
   <g id="patch_29">
    <path d="M 328.636315 189.26125 
L 336.544938 189.26125 
L 336.544938 158.452411 
L 328.636315 158.452411 
z
" clip-path="url(#p6fbd6c1e7e)" style="fill: #3b82f6"/>
   </g>
   <g id="patch_30">
    <path d="M 338.522094 189.26125 
L 346.430717 189.26125 
L 346.430717 152.850804 
L 338.522094 152.850804 
z
" clip-path="url(#p6fbd6c1e7e)" style="fill: #3b82f6"/>
   </g>
   <g id="patch_31">
    <path d="M 348.407873 189.26125 
L 356.316496 189.26125 
L 356.316496 152.850804 
L 348.407873 152.850804 
z
" clip-path="url(#p6fbd6c1e7e)" style="fill: #3b82f6"/>
   </g>
   <g id="patch_32">
    <path d="M 358.293651 189.26125 
L 366.202274 189.26125 
L 366.202274 124.842768 
L 358.293651 124.842768 
z
" clip-path="url(#p6fbd6c1e7e)" style="fill: #3b82f6"/>
   </g>
   <g id="patch_33">
    <path d="M 368.17943 189.26125 
L 376.088053 189.26125 
L 376.088053 141.647589 
L 368.17943 141.647589 
z
" clip-path="url(#p6fbd6c1e7e)" style="fill: #3b82f6"/>
   </g>
   <g id="patch_34">
    <path d="M 378.065209 189.26125 
L 385.973832 189.26125 
L 385.973832 164.054018 
L 378.065209 164.054018 
z
" clip-path="url(#p6fbd6c1e7e)" style="fill: #3b82f6"/>
   </g>
   <g id="patch_35">
    <path d="M 387.950988 189.26125 
L 395.859611 189.26125 
L 395.859611 110.83875 
L 387.950988 110.83875 
z
" clip-path="url(#p6fbd6c1e7e)" style="fill: #3b82f6"/>
   </g>
   <g id="patch_36">
    <path d="M 397.836766 189.26125 
L 405.74539 189.26125 
L 405.74539 161.253214 
L 397.836766 161.253214 
z
" clip-path="url(#p6fbd6c1e7e)" style="fill: #3b82f6"/>
   </g>
   <g id="patch_37">
    <path d="M 407.722545 189.26125 
L 415.631168 189.26125 
L 415.631168 166.854821 
L 407.722545 166.854821 
z
" clip-path="url(#p6fbd6c1e7e)" style="fill: #3b82f6"/>
   </g>
   <g id="patch_38">
    <path d="M 417.608324 189.26125 
L 425.516947 189.26125 
L 425.516947 130.444375 
L 417.608324 130.444375 
z
" clip-path="url(#p6fbd6c1e7e)" style="fill: #3b82f6"/>
   </g>
   <g id="patch_39">
    <path d="M 427.494103 189.26125 
L 435.402726 189.26125 
L 435.402726 169.655625 
L 427.494103 169.655625 
z
" clip-path="url(#p6fbd6c1e7e)" style="fill: #3b82f6"/>
   </g>
   <g id="patch_40">
    <path d="M 437.379882 189.26125 
L 445.288505 189.26125 
L 445.288505 138.846786 
L 437.379882 138.846786 
z
" clip-path="url(#p6fbd6c1e7e)" style="fill: #3b82f6"/>
   </g>
   <g id="patch_41">
    <path d="M 447.26566 189.26125 
L 455.174283 189.26125 
L 455.174283 172.456429 
L 447.26566 172.456429 
z
" clip-path="url(#p6fbd6c1e7e)" style="fill: #3b82f6"/>
   </g>
   <g id="patch_42">
    <path d="M 457.151439 189.26125 
L 465.060062 189.26125 
L 465.060062 147.249196 
L 457.151439 147.249196 
z
" clip-path="url(#p6fbd6c1e7e)" style="fill: #3b82f6"/>
   </g>
   <g id="patch_43">
    <path d="M 467.037218 189.26125 
L 474.945841 189.26125 
L 474.945841 166.854821 
L 467.037218 166.854821 
z
" clip-path="url(#p6fbd6c1e7e)" style="fill: #3b82f6"/>
   </g>
   <g id="patch_44">
    <path d="M 476.922997 189.26125 
L 484.83162 189.26125 
L 484.83162 158.452411 
L 476.922997 158.452411 
z
" clip-path="url(#p6fbd6c1e7e)" style="fill: #3b82f6"/>
   </g>
   <g id="patch_45">
    <path d="M 486.808776 189.26125 
L 494.717399 189.26125 
L 494.717399 161.253214 
L 486.808776 161.253214 
z
" clip-path="url(#p6fbd6c1e7e)" style="fill: #3b82f6"/>
   </g>
   <g id="matplotlib.axis_1">
    <g id="xtick_1">
     <g id="line2d_1"/>
     <g id="text_1">
      <!-- 0 -->
      <g style="fill: #6b7280" transform="translate(72.780691 202.28125) scale(0.1 -0.1)">
       <defs>
        <path id="HelveticaNeue-17" d="M 845 2234 
Q 845 2400 848 2601 
Q 851 2803 880 3004 
Q 909 3206 963 3398 
Q 1018 3590 1123 3734 
Q 1229 3878 1389 3968 
Q 1549 4058 1779 4058 
Q 2010 4058 2170 3968 
Q 2330 3878 2435 3734 
Q 2541 3590 2595 3398 
Q 2650 3206 2678 3004 
Q 2707 2803 2710 2601 
Q 2714 2400 2714 2234 
Q 2714 1978 2698 1661 
Q 2682 1344 2595 1065 
Q 2509 787 2317 595 
Q 2125 403 1779 403 
Q 1434 403 1242 595 
Q 1050 787 963 1065 
Q 877 1344 861 1661 
Q 845 1978 845 2234 
z
M 269 2227 
Q 269 1978 281 1709 
Q 294 1440 345 1184 
Q 397 928 493 701 
Q 589 474 755 301 
Q 922 128 1174 29 
Q 1427 -70 1779 -70 
Q 2138 -70 2387 29 
Q 2637 128 2803 301 
Q 2970 474 3066 701 
Q 3162 928 3213 1184 
Q 3264 1440 3277 1709 
Q 3290 1978 3290 2227 
Q 3290 2477 3277 2745 
Q 3264 3014 3213 3270 
Q 3162 3526 3066 3756 
Q 2970 3987 2803 4160 
Q 2637 4333 2384 4435 
Q 2131 4538 1779 4538 
Q 1427 4538 1174 4435 
Q 922 4333 755 4160 
Q 589 3987 493 3756 
Q 397 3526 345 3270 
Q 294 3014 281 2745 
Q 269 2477 269 2227 
z
" transform="scale(0.015625)"/>
       </defs>
       <use xlink:href="#HelveticaNeue-17"/>
      </g>
     </g>
    </g>
    <g id="xtick_2">
     <g id="line2d_2"/>
     <g id="text_2">
      <!-- 10 -->
      <g style="fill: #6b7280" transform="translate(168.858791 202.28125) scale(0.1 -0.1)">
       <defs>
        <path id="HelveticaNeue-18" d="M 2278 0 
L 2278 4538 
L 1862 4538 
Q 1818 4282 1696 4115 
Q 1574 3949 1398 3853 
Q 1222 3757 1004 3721 
Q 787 3686 557 3686 
L 557 3251 
L 1734 3251 
L 1734 0 
L 2278 0 
z
" transform="scale(0.015625)"/>
       </defs>
       <use xlink:href="#HelveticaNeue-18"/>
       <use xlink:href="#HelveticaNeue-17" transform="translate(55.59375 0)"/>
      </g>
     </g>
    </g>
    <g id="xtick_3">
     <g id="line2d_3"/>
     <g id="text_3">
      <!-- 20 -->
      <g style="fill: #6b7280" transform="translate(267.716579 202.28125) scale(0.1 -0.1)">
       <defs>
        <path id="HelveticaNeue-19" d="M 282 2931 
L 826 2931 
Q 819 3136 867 3337 
Q 915 3539 1024 3699 
Q 1133 3859 1302 3958 
Q 1472 4058 1709 4058 
Q 1888 4058 2048 4000 
Q 2208 3942 2326 3833 
Q 2445 3725 2515 3574 
Q 2586 3424 2586 3238 
Q 2586 3002 2512 2822 
Q 2438 2643 2294 2489 
Q 2150 2336 1932 2185 
Q 1715 2035 1427 1856 
Q 1190 1715 972 1555 
Q 755 1395 582 1184 
Q 410 973 298 688 
Q 186 403 154 0 
L 3117 0 
L 3117 480 
L 787 480 
Q 826 691 950 854 
Q 1075 1018 1251 1158 
Q 1427 1299 1638 1424 
Q 1850 1549 2061 1677 
Q 2272 1811 2470 1958 
Q 2669 2106 2822 2288 
Q 2976 2470 3069 2700 
Q 3162 2931 3162 3232 
Q 3162 3552 3050 3795 
Q 2938 4038 2746 4201 
Q 2554 4365 2294 4451 
Q 2035 4538 1741 4538 
Q 1382 4538 1100 4416 
Q 819 4294 630 4080 
Q 442 3866 352 3571 
Q 262 3277 282 2931 
z
" transform="scale(0.015625)"/>
       </defs>
       <use xlink:href="#HelveticaNeue-19"/>
       <use xlink:href="#HelveticaNeue-17" transform="translate(55.59375 0)"/>
      </g>
     </g>
    </g>
    <g id="xtick_4">
     <g id="line2d_4"/>
     <g id="text_4">
      <!-- 30 -->
      <g style="fill: #6b7280" transform="translate(366.574367 202.28125) scale(0.1 -0.1)">
       <defs>
        <path id="HelveticaNeue-1a" d="M 1395 2592 
L 1395 2131 
Q 1549 2150 1722 2150 
Q 1926 2150 2102 2096 
Q 2278 2042 2406 1930 
Q 2534 1818 2611 1654 
Q 2688 1491 2688 1280 
Q 2688 1075 2608 912 
Q 2528 749 2393 637 
Q 2259 525 2080 464 
Q 1901 403 1702 403 
Q 1235 403 992 681 
Q 749 960 736 1402 
L 192 1402 
Q 186 1050 291 774 
Q 397 499 595 310 
Q 794 122 1075 26 
Q 1357 -70 1702 -70 
Q 2022 -70 2307 16 
Q 2592 102 2803 275 
Q 3014 448 3139 707 
Q 3264 966 3264 1306 
Q 3264 1715 3062 2016 
Q 2861 2317 2445 2406 
L 2445 2419 
Q 2714 2541 2893 2777 
Q 3072 3014 3072 3322 
Q 3072 3635 2966 3865 
Q 2861 4096 2675 4243 
Q 2490 4390 2237 4464 
Q 1984 4538 1690 4538 
Q 1350 4538 1091 4429 
Q 832 4320 659 4128 
Q 486 3936 393 3667 
Q 301 3398 288 3072 
L 832 3072 
Q 832 3270 883 3449 
Q 934 3629 1040 3763 
Q 1146 3898 1309 3978 
Q 1472 4058 1690 4058 
Q 2035 4058 2265 3875 
Q 2496 3693 2496 3328 
Q 2496 3149 2425 3008 
Q 2355 2867 2236 2774 
Q 2118 2682 1961 2634 
Q 1805 2586 1632 2586 
L 1517 2586 
Q 1485 2586 1453 2586 
Q 1427 2586 1395 2592 
z
" transform="scale(0.015625)"/>
       </defs>
       <use xlink:href="#HelveticaNeue-1a"/>
       <use xlink:href="#HelveticaNeue-17" transform="translate(55.59375 0)"/>
      </g>
     </g>
    </g>
    <g id="xtick_5">
     <g id="line2d_5"/>
     <g id="text_5">
      <!-- 40 -->
      <g style="fill: #6b7280" transform="translate(465.432154 202.28125) scale(0.1 -0.1)">
       <defs>
        <path id="HelveticaNeue-1b" d="M 2170 1542 
L 646 1542 
L 2157 3763 
L 2170 3763 
L 2170 1542 
z
M 2682 1542 
L 2682 4538 
L 2246 4538 
L 179 1587 
L 179 1062 
L 2170 1062 
L 2170 0 
L 2682 0 
L 2682 1062 
L 3296 1062 
L 3296 1542 
L 2682 1542 
z
" transform="scale(0.015625)"/>
       </defs>
       <use xlink:href="#HelveticaNeue-1b"/>
       <use xlink:href="#HelveticaNeue-17" transform="translate(55.59375 0)"/>
      </g>
     </g>
    </g>
   </g>
   <g id="matplotlib.axis_2">
    <g id="ytick_1">
     <g id="line2d_6"/>
     <g id="text_6">
      <!-- 0 -->
      <g style="fill: #1f2933" transform="translate(41.391125 194.02125) scale(0.1 -0.1)">
       <use xlink:href="#HelveticaNeue-17"/>
      </g>
     </g>
    </g>
    <g id="ytick_2">
     <g id="line2d_7"/>
     <g id="text_7">
      <!-- 10 -->
      <g style="fill: #1f2933" transform="translate(35.83175 166.013214) scale(0.1 -0.1)">
       <use xlink:href="#HelveticaNeue-18"/>
       <use xlink:href="#HelveticaNeue-17" transform="translate(55.59375 0)"/>
      </g>
     </g>
    </g>
    <g id="ytick_3">
     <g id="line2d_8"/>
     <g id="text_8">
      <!-- 20 -->
      <g style="fill: #1f2933" transform="translate(35.83175 138.005179) scale(0.1 -0.1)">
       <use xlink:href="#HelveticaNeue-19"/>
       <use xlink:href="#HelveticaNeue-17" transform="translate(55.59375 0)"/>
      </g>
     </g>
    </g>
    <g id="ytick_4">
     <g id="line2d_9"/>
     <g id="text_9">
      <!-- 30 -->
      <g style="fill: #1f2933" transform="translate(35.83175 109.997143) scale(0.1 -0.1)">
       <use xlink:href="#HelveticaNeue-1a"/>
       <use xlink:href="#HelveticaNeue-17" transform="translate(55.59375 0)"/>
      </g>
     </g>
    </g>
    <g id="ytick_5">
     <g id="line2d_10"/>
     <g id="text_10">
      <!-- 40 -->
      <g style="fill: #1f2933" transform="translate(35.83175 81.989107) scale(0.1 -0.1)">
       <use xlink:href="#HelveticaNeue-1b"/>
       <use xlink:href="#HelveticaNeue-17" transform="translate(55.59375 0)"/>
      </g>
     </g>
    </g>
    <g id="text_11">
     <!-- longest run -->
     <g style="fill: #1f2933" transform="translate(19.76175 151.698359) rotate(-90) scale(0.085 -0.085)">
      <defs>
       <path id="HelveticaNeue-53" d="M 442 4570 
L 442 0 
L 986 0 
L 986 4570 
L 442 4570 
z
" transform="scale(0.015625)"/>
       <path id="HelveticaNeue-56" d="M 806 1651 
Q 806 1952 886 2185 
Q 966 2419 1107 2579 
Q 1248 2739 1437 2822 
Q 1626 2906 1837 2906 
Q 2048 2906 2237 2822 
Q 2426 2739 2566 2579 
Q 2707 2419 2787 2185 
Q 2867 1952 2867 1651 
Q 2867 1350 2787 1116 
Q 2707 883 2566 726 
Q 2426 570 2237 486 
Q 2048 403 1837 403 
Q 1626 403 1437 486 
Q 1248 570 1107 726 
Q 966 883 886 1116 
Q 806 1350 806 1651 
z
M 230 1651 
Q 230 1286 332 972 
Q 435 659 640 425 
Q 845 192 1145 61 
Q 1446 -70 1837 -70 
Q 2234 -70 2531 61 
Q 2829 192 3033 425 
Q 3238 659 3340 972 
Q 3443 1286 3443 1651 
Q 3443 2016 3340 2333 
Q 3238 2650 3033 2883 
Q 2829 3117 2531 3251 
Q 2234 3386 1837 3386 
Q 1446 3386 1145 3251 
Q 845 3117 640 2883 
Q 435 2650 332 2333 
Q 230 2016 230 1651 
z
" transform="scale(0.015625)"/>
       <path id="HelveticaNeue-55" d="M 410 3309 
L 410 0 
L 954 0 
L 954 1869 
Q 954 2093 1014 2281 
Q 1075 2470 1196 2611 
Q 1318 2752 1500 2829 
Q 1683 2906 1933 2906 
Q 2246 2906 2425 2726 
Q 2605 2547 2605 2240 
L 2605 0 
L 3149 0 
L 3149 2176 
Q 3149 2445 3094 2665 
Q 3040 2886 2905 3046 
Q 2771 3206 2553 3296 
Q 2336 3386 2010 3386 
Q 1274 3386 934 2784 
L 922 2784 
L 922 3309 
L 410 3309 
z
" transform="scale(0.015625)"/>
       <path id="HelveticaNeue-4e" d="M 3264 282 
L 3264 3309 
L 2752 3309 
L 2752 2835 
L 2746 2835 
Q 2598 3110 2336 3248 
Q 2074 3386 1760 3386 
Q 1331 3386 1036 3222 
Q 742 3059 563 2806 
Q 384 2554 307 2243 
Q 230 1933 230 1638 
Q 230 1299 323 995 
Q 416 691 601 464 
Q 787 237 1062 102 
Q 1338 -32 1709 -32 
Q 2029 -32 2313 112 
Q 2598 256 2739 563 
L 2752 563 
L 2752 346 
Q 2752 70 2697 -160 
Q 2643 -390 2521 -553 
Q 2400 -717 2214 -809 
Q 2029 -902 1760 -902 
Q 1626 -902 1478 -873 
Q 1331 -845 1206 -781 
Q 1082 -717 995 -614 
Q 909 -512 902 -365 
L 358 -365 
Q 371 -634 499 -819 
Q 627 -1005 822 -1120 
Q 1018 -1235 1258 -1286 
Q 1498 -1338 1728 -1338 
Q 2522 -1338 2893 -934 
Q 3264 -531 3264 282 
z
M 1741 442 
Q 1472 442 1293 554 
Q 1114 666 1005 848 
Q 896 1030 851 1254 
Q 806 1478 806 1702 
Q 806 1939 860 2156 
Q 915 2374 1033 2540 
Q 1152 2707 1337 2806 
Q 1523 2906 1786 2906 
Q 2042 2906 2221 2803 
Q 2400 2701 2512 2531 
Q 2624 2362 2675 2150 
Q 2726 1939 2726 1722 
Q 2726 1491 2672 1260 
Q 2618 1030 2502 848 
Q 2387 666 2198 554 
Q 2010 442 1741 442 
z
" transform="scale(0.015625)"/>
       <path id="HelveticaNeue-4c" d="M 2707 1971 
L 806 1971 
Q 819 2163 889 2332 
Q 960 2502 1081 2630 
Q 1203 2758 1372 2832 
Q 1542 2906 1754 2906 
Q 1958 2906 2128 2832 
Q 2298 2758 2422 2633 
Q 2547 2509 2620 2336 
Q 2694 2163 2707 1971 
z
M 3232 1050 
L 2694 1050 
Q 2624 723 2403 563 
Q 2182 403 1837 403 
Q 1568 403 1369 492 
Q 1171 582 1043 732 
Q 915 883 857 1078 
Q 800 1274 806 1491 
L 3283 1491 
Q 3296 1792 3229 2125 
Q 3162 2458 2986 2739 
Q 2810 3021 2518 3203 
Q 2227 3386 1786 3386 
Q 1446 3386 1161 3258 
Q 877 3130 669 2899 
Q 461 2669 345 2355 
Q 230 2042 230 1664 
Q 243 1286 342 966 
Q 442 646 640 416 
Q 838 186 1129 58 
Q 1421 -70 1818 -70 
Q 2381 -70 2752 211 
Q 3123 493 3232 1050 
z
" transform="scale(0.015625)"/>
       <path id="HelveticaNeue-5a" d="M 742 1043 
L 198 1043 
Q 211 736 326 521 
Q 442 307 634 176 
Q 826 45 1075 -12 
Q 1325 -70 1600 -70 
Q 1850 -70 2102 -22 
Q 2355 26 2556 147 
Q 2758 269 2883 467 
Q 3008 666 3008 966 
Q 3008 1203 2915 1363 
Q 2822 1523 2672 1628 
Q 2522 1734 2326 1798 
Q 2131 1862 1926 1907 
Q 1734 1952 1542 1993 
Q 1350 2035 1196 2096 
Q 1043 2157 944 2249 
Q 845 2342 845 2483 
Q 845 2611 909 2691 
Q 973 2771 1075 2819 
Q 1178 2867 1302 2886 
Q 1427 2906 1549 2906 
Q 1683 2906 1814 2877 
Q 1946 2848 2054 2784 
Q 2163 2720 2233 2614 
Q 2304 2509 2317 2349 
L 2861 2349 
Q 2842 2650 2733 2851 
Q 2624 3053 2441 3171 
Q 2259 3290 2022 3338 
Q 1786 3386 1504 3386 
Q 1286 3386 1065 3331 
Q 845 3277 669 3165 
Q 493 3053 381 2873 
Q 269 2694 269 2445 
Q 269 2125 429 1945 
Q 589 1766 829 1667 
Q 1069 1568 1350 1513 
Q 1632 1459 1872 1392 
Q 2112 1325 2272 1216 
Q 2432 1107 2432 896 
Q 2432 742 2355 643 
Q 2278 544 2160 493 
Q 2042 442 1901 422 
Q 1760 403 1632 403 
Q 1466 403 1309 435 
Q 1152 467 1027 540 
Q 902 614 825 739 
Q 749 864 742 1043 
z
" transform="scale(0.015625)"/>
       <path id="HelveticaNeue-5b" d="M 1165 3309 
L 1165 4301 
L 621 4301 
L 621 3309 
L 58 3309 
L 58 2829 
L 621 2829 
L 621 723 
Q 621 493 665 352 
Q 710 211 803 134 
Q 896 58 1046 29 
Q 1197 0 1408 0 
L 1824 0 
L 1824 480 
L 1574 480 
Q 1446 480 1366 489 
Q 1286 499 1241 531 
Q 1197 563 1181 620 
Q 1165 678 1165 774 
L 1165 2829 
L 1824 2829 
L 1824 3309 
L 1165 3309 
z
" transform="scale(0.015625)"/>
       <path id="HelveticaNeue-3" transform="scale(0.015625)"/>
       <path id="HelveticaNeue-59" d="M 390 3309 
L 390 0 
L 934 0 
L 934 1472 
Q 934 1792 998 2038 
Q 1062 2285 1203 2457 
Q 1344 2630 1574 2720 
Q 1805 2810 2131 2810 
L 2131 3386 
Q 1690 3398 1402 3206 
Q 1114 3014 915 2611 
L 902 2611 
L 902 3309 
L 390 3309 
z
" transform="scale(0.015625)"/>
       <path id="HelveticaNeue-5c" d="M 3149 0 
L 3149 3309 
L 2605 3309 
L 2605 1440 
Q 2605 1216 2544 1027 
Q 2483 838 2361 697 
Q 2240 557 2057 480 
Q 1875 403 1626 403 
Q 1312 403 1133 582 
Q 954 762 954 1069 
L 954 3309 
L 410 3309 
L 410 1133 
Q 410 864 464 643 
Q 518 422 652 262 
Q 787 102 1004 16 
Q 1222 -70 1549 -70 
Q 1914 -70 2182 74 
Q 2451 218 2624 525 
L 2637 525 
L 2637 0 
L 3149 0 
z
" transform="scale(0.015625)"/>
      </defs>
      <use xlink:href="#HelveticaNeue-53"/>
      <use xlink:href="#HelveticaNeue-56" transform="translate(22.203125 0)"/>
      <use xlink:href="#HelveticaNeue-55" transform="translate(79.609375 0)"/>
      <use xlink:href="#HelveticaNeue-4e" transform="translate(135.203125 0)"/>
      <use xlink:href="#HelveticaNeue-4c" transform="translate(192.609375 0)"/>
      <use xlink:href="#HelveticaNeue-5a" transform="translate(246.3125 0)"/>
      <use xlink:href="#HelveticaNeue-5b" transform="translate(296.3125 0)"/>
      <use xlink:href="#HelveticaNeue-3" transform="translate(327.8125 0)"/>
      <use xlink:href="#HelveticaNeue-59" transform="translate(355.609375 0)"/>
      <use xlink:href="#HelveticaNeue-5c" transform="translate(388.90625 0)"/>
      <use xlink:href="#HelveticaNeue-55" transform="translate(444.5 0)"/>
     </g>
     <!-- (words) -->
     <g style="fill: #1f2933" transform="translate(29.90225 144.291406) rotate(-90) scale(0.085 -0.085)">
      <defs>
       <path id="HelveticaNeue-f" d="M 1306 -1261 
L 1722 -1261 
Q 1267 -525 1072 198 
Q 877 922 877 1728 
Q 877 2515 1069 3232 
Q 1261 3949 1722 4678 
L 1306 4678 
Q 806 4019 553 3251 
Q 301 2483 301 1728 
Q 301 1306 371 922 
Q 442 538 573 173 
Q 704 -192 889 -547 
Q 1075 -902 1306 -1261 
z
" transform="scale(0.015625)"/>
       <path id="HelveticaNeue-5e" d="M 3686 0 
L 4742 3309 
L 4179 3309 
L 3437 602 
L 3424 602 
L 2733 3309 
L 2138 3309 
L 1472 602 
L 1459 602 
L 710 3309 
L 109 3309 
L 1171 0 
L 1760 0 
L 2426 2630 
L 2438 2630 
L 3110 0 
L 3686 0 
z
" transform="scale(0.015625)"/>
       <path id="HelveticaNeue-4b" d="M 806 1626 
Q 806 1869 857 2099 
Q 909 2330 1024 2509 
Q 1139 2688 1331 2797 
Q 1523 2906 1798 2906 
Q 2080 2906 2278 2800 
Q 2477 2694 2601 2521 
Q 2726 2349 2784 2121 
Q 2842 1894 2842 1651 
Q 2842 1421 2787 1197 
Q 2733 973 2611 797 
Q 2490 621 2298 512 
Q 2106 403 1830 403 
Q 1568 403 1373 505 
Q 1178 608 1053 781 
Q 928 954 867 1174 
Q 806 1395 806 1626 
z
M 3366 0 
L 3366 4570 
L 2822 4570 
L 2822 2867 
L 2810 2867 
Q 2720 3014 2589 3113 
Q 2458 3213 2310 3273 
Q 2163 3334 2016 3360 
Q 1869 3386 1741 3386 
Q 1363 3386 1078 3248 
Q 794 3110 605 2876 
Q 416 2643 323 2329 
Q 230 2016 230 1664 
Q 230 1312 326 998 
Q 422 685 611 448 
Q 800 211 1085 70 
Q 1370 -70 1754 -70 
Q 2099 -70 2387 51 
Q 2675 173 2810 448 
L 2822 448 
L 2822 0 
L 3366 0 
z
" transform="scale(0.015625)"/>
       <path id="HelveticaNeue-10" d="M -58 -1261 
L 352 -1261 
Q 851 -602 1104 163 
Q 1357 928 1357 1683 
Q 1357 2106 1286 2490 
Q 1216 2874 1085 3242 
Q 954 3610 768 3965 
Q 582 4320 352 4678 
L -58 4678 
Q 390 3942 585 3216 
Q 781 2490 781 1683 
Q 781 902 589 182 
Q 397 -538 -58 -1261 
z
" transform="scale(0.015625)"/>
      </defs>
      <use xlink:href="#HelveticaNeue-f"/>
      <use xlink:href="#HelveticaNeue-5e" transform="translate(25.90625 0)"/>
      <use xlink:href="#HelveticaNeue-56" transform="translate(101.703125 0)"/>
      <use xlink:href="#HelveticaNeue-59" transform="translate(159.109375 0)"/>
      <use xlink:href="#HelveticaNeue-4b" transform="translate(190.609375 0)"/>
      <use xlink:href="#HelveticaNeue-5a" transform="translate(249.90625 0)"/>
      <use xlink:href="#HelveticaNeue-10" transform="translate(299.90625 0)"/>
     </g>
    </g>
   </g>
   <g id="line2d_11">
    <path d="M 50.4505 161.253214 
L 515.872965 161.253214 
" clip-path="url(#p6fbd6c1e7e)" style="fill: none; stroke-dasharray: 3.7,1.6; stroke-dashoffset: 0; stroke: #6b7280"/>
   </g>
   <g id="patch_46">
    <path d="M 50.4505 189.26125 
L 50.4505 71.6275 
" style="fill: none; stroke: #d1d5db; stroke-width: 0.8; stroke-linejoin: miter; stroke-linecap: square"/>
   </g>
   <g id="patch_47">
    <path d="M 515.872965 189.26125 
L 515.872965 71.6275 
" style="fill: none; stroke: #d1d5db; stroke-width: 0.8; stroke-linejoin: miter; stroke-linecap: square"/>
   </g>
   <g id="patch_48">
    <path d="M 50.4505 189.26125 
L 515.872965 189.26125 
" style="fill: none; stroke: #d1d5db; stroke-width: 0.8; stroke-linejoin: miter; stroke-linecap: square"/>
   </g>
   <g id="patch_49">
    <path d="M 50.4505 71.6275 
L 515.872965 71.6275 
" style="fill: none; stroke: #d1d5db; stroke-width: 0.8; stroke-linejoin: miter; stroke-linecap: square"/>
   </g>
   <g id="text_12">
    <!-- 10 words -->
    <g style="fill: #6b7280" transform="translate(625.782576 156.748411) scale(0.08 -0.08)">
     <use xlink:href="#HelveticaNeue-18"/>
     <use xlink:href="#HelveticaNeue-17" transform="translate(55.59375 0)"/>
     <use xlink:href="#HelveticaNeue-3" transform="translate(111.1875 0)"/>
     <use xlink:href="#HelveticaNeue-5e" transform="translate(138.984375 0)"/>
     <use xlink:href="#HelveticaNeue-56" transform="translate(214.78125 0)"/>
     <use xlink:href="#HelveticaNeue-59" transform="translate(272.1875 0)"/>
     <use xlink:href="#HelveticaNeue-4b" transform="translate(303.6875 0)"/>
     <use xlink:href="#HelveticaNeue-5a" transform="translate(362.984375 0)"/>
    </g>
   </g>
   <g id="text_13">
    <!-- antirez blog post (human, 2018)   flow = 0.64 -->
    <g style="fill: #1f2933" transform="translate(50.4505 65.6275) scale(0.1 -0.1)">
     <defs>
      <path id="HelveticaNeue-48" d="M 3341 13 
Q 3200 -70 2950 -70 
Q 2739 -70 2614 48 
Q 2490 166 2490 435 
Q 2266 166 1968 48 
Q 1670 -70 1325 -70 
Q 1101 -70 899 -19 
Q 698 32 550 141 
Q 403 250 316 426 
Q 230 602 230 851 
Q 230 1133 326 1312 
Q 422 1491 579 1603 
Q 736 1715 937 1772 
Q 1139 1830 1350 1869 
Q 1574 1914 1776 1936 
Q 1978 1958 2131 2000 
Q 2285 2042 2374 2122 
Q 2464 2202 2464 2355 
Q 2464 2534 2397 2643 
Q 2330 2752 2224 2809 
Q 2118 2867 1987 2886 
Q 1856 2906 1728 2906 
Q 1382 2906 1152 2774 
Q 922 2643 902 2278 
L 358 2278 
Q 371 2586 486 2797 
Q 602 3008 794 3139 
Q 986 3270 1232 3328 
Q 1478 3386 1760 3386 
Q 1984 3386 2205 3354 
Q 2426 3322 2605 3222 
Q 2784 3123 2893 2944 
Q 3002 2765 3002 2477 
L 3002 774 
Q 3002 582 3024 492 
Q 3046 403 3174 403 
Q 3245 403 3341 435 
L 3341 13 
z
M 2458 1709 
Q 2355 1632 2188 1597 
Q 2022 1562 1840 1539 
Q 1658 1517 1472 1488 
Q 1286 1459 1139 1395 
Q 992 1331 899 1212 
Q 806 1094 806 890 
Q 806 755 860 662 
Q 915 570 1001 512 
Q 1088 454 1203 428 
Q 1318 403 1446 403 
Q 1715 403 1907 476 
Q 2099 550 2220 662 
Q 2342 774 2400 905 
Q 2458 1037 2458 1152 
L 2458 1709 
z
" transform="scale(0.015625)"/>
      <path id="HelveticaNeue-50" d="M 986 3904 
L 986 4570 
L 442 4570 
L 442 3904 
L 986 3904 
z
M 442 3309 
L 442 0 
L 986 0 
L 986 3309 
L 442 3309 
z
" transform="scale(0.015625)"/>
      <path id="HelveticaNeue-61" d="M 141 416 
L 141 0 
L 2931 0 
L 2931 480 
L 819 480 
L 2842 2938 
L 2842 3309 
L 269 3309 
L 269 2829 
L 2138 2829 
L 141 416 
z
" transform="scale(0.015625)"/>
      <path id="HelveticaNeue-49" d="M 429 4570 
L 429 0 
L 973 0 
L 973 442 
L 986 442 
Q 1075 294 1206 195 
Q 1338 96 1485 38 
Q 1632 -19 1782 -44 
Q 1933 -70 2054 -70 
Q 2432 -70 2717 64 
Q 3002 198 3190 432 
Q 3379 666 3472 979 
Q 3565 1293 3565 1645 
Q 3565 1997 3469 2310 
Q 3373 2624 3184 2864 
Q 2995 3104 2710 3245 
Q 2426 3386 2042 3386 
Q 1696 3386 1408 3261 
Q 1120 3136 986 2861 
L 973 2861 
L 973 4570 
L 429 4570 
z
M 2989 1683 
Q 2989 1440 2937 1209 
Q 2886 979 2771 800 
Q 2656 621 2467 512 
Q 2278 403 1997 403 
Q 1715 403 1516 508 
Q 1318 614 1193 787 
Q 1069 960 1011 1187 
Q 954 1414 954 1658 
Q 954 1888 1008 2112 
Q 1062 2336 1184 2512 
Q 1306 2688 1498 2797 
Q 1690 2906 1965 2906 
Q 2227 2906 2422 2803 
Q 2618 2701 2742 2528 
Q 2867 2355 2928 2134 
Q 2989 1914 2989 1683 
z
" transform="scale(0.015625)"/>
      <path id="HelveticaNeue-57" d="M 429 3309 
L 429 -1261 
L 973 -1261 
L 973 442 
L 986 442 
Q 1075 294 1206 195 
Q 1338 96 1485 38 
Q 1632 -19 1782 -44 
Q 1933 -70 2054 -70 
Q 2432 -70 2717 64 
Q 3002 198 3190 432 
Q 3379 666 3472 979 
Q 3565 1293 3565 1645 
Q 3565 1997 3469 2310 
Q 3373 2624 3184 2864 
Q 2995 3104 2710 3245 
Q 2426 3386 2042 3386 
Q 1696 3386 1408 3261 
Q 1120 3136 986 2861 
L 973 2861 
L 973 3309 
L 429 3309 
z
M 2989 1683 
Q 2989 1440 2937 1209 
Q 2886 979 2771 800 
Q 2656 621 2467 512 
Q 2278 403 1997 403 
Q 1715 403 1516 508 
Q 1318 614 1193 787 
Q 1069 960 1011 1187 
Q 954 1414 954 1658 
Q 954 1888 1008 2112 
Q 1062 2336 1184 2512 
Q 1306 2688 1498 2797 
Q 1690 2906 1965 2906 
Q 2227 2906 2422 2803 
Q 2618 2701 2742 2528 
Q 2867 2355 2928 2134 
Q 2989 1914 2989 1683 
z
" transform="scale(0.015625)"/>
      <path id="HelveticaNeue-4f" d="M 410 4570 
L 410 0 
L 954 0 
L 954 1869 
Q 954 2093 1014 2281 
Q 1075 2470 1196 2611 
Q 1318 2752 1500 2829 
Q 1683 2906 1933 2906 
Q 2246 2906 2425 2726 
Q 2605 2547 2605 2240 
L 2605 0 
L 3149 0 
L 3149 2176 
Q 3149 2445 3094 2665 
Q 3040 2886 2905 3046 
Q 2771 3206 2553 3296 
Q 2336 3386 2010 3386 
Q 1862 3386 1705 3354 
Q 1549 3322 1405 3254 
Q 1261 3187 1145 3081 
Q 1030 2976 966 2822 
L 954 2822 
L 954 4570 
L 410 4570 
z
" transform="scale(0.015625)"/>
      <path id="HelveticaNeue-54" d="M 410 3309 
L 410 0 
L 954 0 
L 954 2061 
Q 954 2157 1002 2301 
Q 1050 2445 1155 2579 
Q 1261 2714 1430 2810 
Q 1600 2906 1837 2906 
Q 2022 2906 2140 2851 
Q 2259 2797 2329 2697 
Q 2400 2598 2429 2464 
Q 2458 2330 2458 2170 
L 2458 0 
L 3002 0 
L 3002 2061 
Q 3002 2445 3232 2675 
Q 3462 2906 3866 2906 
Q 4064 2906 4189 2848 
Q 4314 2790 4384 2691 
Q 4454 2592 4480 2457 
Q 4506 2323 4506 2170 
L 4506 0 
L 5050 0 
L 5050 2426 
Q 5050 2682 4970 2864 
Q 4890 3046 4746 3161 
Q 4602 3277 4400 3331 
Q 4198 3386 3949 3386 
Q 3622 3386 3350 3238 
Q 3078 3091 2912 2822 
Q 2810 3130 2560 3258 
Q 2310 3386 2003 3386 
Q 1306 3386 934 2822 
L 922 2822 
L 922 3309 
L 410 3309 
z
" transform="scale(0.015625)"/>
      <path id="HelveticaNeue-13" d="M 531 710 
L 531 0 
L 909 0 
Q 915 -77 899 -166 
Q 883 -256 838 -342 
Q 794 -429 720 -502 
Q 646 -576 538 -614 
L 538 -934 
Q 909 -826 1075 -563 
Q 1242 -301 1242 64 
L 1242 710 
L 531 710 
z
" transform="scale(0.015625)"/>
      <path id="HelveticaNeue-1f" d="M 992 3360 
Q 992 3533 1056 3661 
Q 1120 3789 1225 3878 
Q 1331 3968 1478 4013 
Q 1626 4058 1786 4058 
Q 2118 4058 2332 3882 
Q 2547 3706 2547 3360 
Q 2547 3014 2336 2822 
Q 2125 2630 1798 2630 
Q 1632 2630 1485 2675 
Q 1338 2720 1229 2809 
Q 1120 2899 1056 3036 
Q 992 3174 992 3360 
z
M 416 3379 
Q 416 3072 589 2813 
Q 762 2554 1050 2438 
Q 666 2304 461 2006 
Q 256 1709 256 1306 
Q 256 960 374 701 
Q 493 442 701 269 
Q 909 96 1190 13 
Q 1472 -70 1798 -70 
Q 2112 -70 2387 19 
Q 2662 109 2864 285 
Q 3066 461 3184 717 
Q 3302 973 3302 1306 
Q 3302 1728 3104 2019 
Q 2906 2310 2496 2438 
Q 2784 2566 2953 2819 
Q 3123 3072 3123 3379 
Q 3123 3597 3046 3805 
Q 2970 4013 2806 4176 
Q 2643 4339 2380 4438 
Q 2118 4538 1747 4538 
Q 1485 4538 1245 4461 
Q 1005 4384 819 4237 
Q 634 4090 525 3875 
Q 416 3661 416 3379 
z
M 832 1280 
Q 832 1478 905 1638 
Q 979 1798 1110 1913 
Q 1242 2029 1418 2089 
Q 1594 2150 1792 2150 
Q 1984 2150 2153 2083 
Q 2323 2016 2451 1901 
Q 2579 1786 2652 1629 
Q 2726 1472 2726 1286 
Q 2726 1094 2659 934 
Q 2592 774 2467 656 
Q 2342 538 2172 470 
Q 2003 403 1798 403 
Q 1376 403 1104 636 
Q 832 870 832 1280 
z
" transform="scale(0.015625)"/>
      <path id="HelveticaNeue-c5" d="M 2336 4570 
L 2336 0 
L 2880 0 
L 2880 4570 
L 2336 4570 
z
M 634 2829 
L 634 0 
L 1178 0 
L 1178 2829 
L 1818 2829 
L 1818 3309 
L 1178 3309 
L 1178 3770 
Q 1178 3987 1286 4064 
Q 1395 4141 1594 4141 
Q 1664 4141 1747 4131 
Q 1830 4122 1901 4096 
L 1901 4570 
Q 1824 4595 1725 4608 
Q 1626 4621 1549 4621 
Q 1101 4621 867 4413 
Q 634 4205 634 3802 
L 634 3309 
L 77 3309 
L 77 2829 
L 634 2829 
z
" transform="scale(0.015625)"/>
      <path id="HelveticaNeue-24" d="M 307 1190 
L 307 755 
L 3533 755 
L 3533 1190 
L 307 1190 
z
M 3533 2048 
L 3533 2483 
L 307 2483 
L 307 2048 
L 3533 2048 
z
" transform="scale(0.015625)"/>
      <path id="HelveticaNeue-15" d="M 531 710 
L 531 0 
L 1242 0 
L 1242 710 
L 531 710 
z
" transform="scale(0.015625)"/>
      <path id="HelveticaNeue-1d" d="M 2650 3379 
L 3194 3379 
Q 3142 3942 2809 4240 
Q 2477 4538 1914 4538 
Q 1427 4538 1107 4333 
Q 787 4128 595 3789 
Q 403 3450 323 3011 
Q 243 2573 243 2106 
Q 243 1747 297 1363 
Q 352 979 518 659 
Q 685 339 992 134 
Q 1299 -70 1805 -70 
Q 2234 -70 2525 74 
Q 2816 218 2992 438 
Q 3168 659 3245 928 
Q 3322 1197 3322 1446 
Q 3322 1760 3226 2029 
Q 3130 2298 2954 2496 
Q 2778 2694 2518 2806 
Q 2259 2918 1933 2918 
Q 1562 2918 1277 2777 
Q 992 2637 800 2323 
L 787 2336 
Q 794 2598 838 2899 
Q 883 3200 1001 3459 
Q 1120 3718 1331 3888 
Q 1542 4058 1888 4058 
Q 2214 4058 2412 3872 
Q 2611 3686 2650 3379 
z
M 1830 2438 
Q 2061 2438 2233 2355 
Q 2406 2272 2521 2134 
Q 2637 1997 2691 1808 
Q 2746 1619 2746 1408 
Q 2746 1210 2685 1027 
Q 2624 845 2509 704 
Q 2394 563 2224 483 
Q 2054 403 1830 403 
Q 1606 403 1430 483 
Q 1254 563 1136 697 
Q 1018 832 954 1017 
Q 890 1203 890 1414 
Q 890 1626 950 1814 
Q 1011 2003 1132 2140 
Q 1254 2278 1427 2358 
Q 1600 2438 1830 2438 
z
" transform="scale(0.015625)"/>
     </defs>
     <use xlink:href="#HelveticaNeue-48"/>
     <use xlink:href="#HelveticaNeue-55" transform="translate(53.703125 0)"/>
     <use xlink:href="#HelveticaNeue-5b" transform="translate(109.296875 0)"/>
     <use xlink:href="#HelveticaNeue-50" transform="translate(140.796875 0)"/>
     <use xlink:href="#HelveticaNeue-59" transform="translate(163 0)"/>
     <use xlink:href="#HelveticaNeue-4c" transform="translate(194.5 0)"/>
     <use xlink:href="#HelveticaNeue-61" transform="translate(248.203125 0)"/>
     <use xlink:href="#HelveticaNeue-3" transform="translate(296.203125 0)"/>
     <use xlink:href="#HelveticaNeue-49" transform="translate(324 0)"/>
     <use xlink:href="#HelveticaNeue-53" transform="translate(383.296875 0)"/>
     <use xlink:href="#HelveticaNeue-56" transform="translate(405.5 0)"/>
     <use xlink:href="#HelveticaNeue-4e" transform="translate(462.90625 0)"/>
     <use xlink:href="#HelveticaNeue-3" transform="translate(520.3125 0)"/>
     <use xlink:href="#HelveticaNeue-57" transform="translate(548.109375 0)"/>
     <use xlink:href="#HelveticaNeue-56" transform="translate(607.40625 0)"/>
     <use xlink:href="#HelveticaNeue-5a" transform="translate(664.8125 0)"/>
     <use xlink:href="#HelveticaNeue-5b" transform="translate(714.8125 0)"/>
     <use xlink:href="#HelveticaNeue-3" transform="translate(746.3125 0)"/>
     <use xlink:href="#HelveticaNeue-f" transform="translate(774.109375 0)"/>
     <use xlink:href="#HelveticaNeue-4f" transform="translate(800.015625 0)"/>
     <use xlink:href="#HelveticaNeue-5c" transform="translate(855.609375 0)"/>
     <use xlink:href="#HelveticaNeue-54" transform="translate(911.203125 0)"/>
     <use xlink:href="#HelveticaNeue-48" transform="translate(996.5 0)"/>
     <use xlink:href="#HelveticaNeue-55" transform="translate(1050.203125 0)"/>
     <use xlink:href="#HelveticaNeue-13" transform="translate(1105.796875 0)"/>
     <use xlink:href="#HelveticaNeue-3" transform="translate(1133.59375 0)"/>
     <use xlink:href="#HelveticaNeue-19" transform="translate(1161.390625 0)"/>
     <use xlink:href="#HelveticaNeue-17" transform="translate(1216.984375 0)"/>
     <use xlink:href="#HelveticaNeue-18" transform="translate(1272.578125 0)"/>
     <use xlink:href="#HelveticaNeue-1f" transform="translate(1328.171875 0)"/>
     <use xlink:href="#HelveticaNeue-10" transform="translate(1383.765625 0)"/>
     <use xlink:href="#HelveticaNeue-3" transform="translate(1409.671875 0)"/>
     <use xlink:href="#HelveticaNeue-3" transform="translate(1437.46875 0)"/>
     <use xlink:href="#HelveticaNeue-3" transform="translate(1465.265625 0)"/>
     <use xlink:href="#HelveticaNeue-c5" transform="translate(1493.0625 0)"/>
     <use xlink:href="#HelveticaNeue-56" transform="translate(1544.859375 0)"/>
     <use xlink:href="#HelveticaNeue-5e" transform="translate(1602.265625 0)"/>
     <use xlink:href="#HelveticaNeue-3" transform="translate(1678.0625 0)"/>
     <use xlink:href="#HelveticaNeue-24" transform="translate(1705.859375 0)"/>
     <use xlink:href="#HelveticaNeue-3" transform="translate(1765.859375 0)"/>
     <use xlink:href="#HelveticaNeue-17" transform="translate(1793.65625 0)"/>
     <use xlink:href="#HelveticaNeue-15" transform="translate(1849.25 0)"/>
     <use xlink:href="#HelveticaNeue-1d" transform="translate(1877.046875 0)"/>
     <use xlink:href="#HelveticaNeue-1b" transform="translate(1932.640625 0)"/>
    </g>
   </g>
  </g>
  <g id="axes_2">
   <g id="patch_50">
    <path d="M 50.4505 348.365 
L 515.872965 348.365 
L 515.872965 230.73125 
L 50.4505 230.73125 
z
" style="fill: #ffffff"/>
   </g>
   <g id="patch_51">
    <path d="M 71.606067 348.365 
L 77.362683 348.365 
L 77.362683 331.560179 
L 71.606067 331.560179 
z
" clip-path="url(#p4c7547e153)" style="fill: #d97706"/>
   </g>
   <g id="patch_52">
    <path d="M 78.801838 348.365 
L 84.558454 348.365 
L 84.558454 306.352946 
L 78.801838 306.352946 
z
" clip-path="url(#p4c7547e153)" style="fill: #d97706"/>
   </g>
   <g id="patch_53">
    <path d="M 85.997609 348.365 
L 91.754225 348.365 
L 91.754225 320.356964 
L 85.997609 320.356964 
z
" clip-path="url(#p4c7547e153)" style="fill: #d97706"/>
   </g>
   <g id="patch_54">
    <path d="M 93.193379 348.365 
L 98.949996 348.365 
L 98.949996 328.759375 
L 93.193379 328.759375 
z
" clip-path="url(#p4c7547e153)" style="fill: #d97706"/>
   </g>
   <g id="patch_55">
    <path d="M 100.38915 348.365 
L 106.145767 348.365 
L 106.145767 325.958571 
L 100.38915 325.958571 
z
" clip-path="url(#p4c7547e153)" style="fill: #d97706"/>
   </g>
   <g id="patch_56">
    <path d="M 107.584921 348.365 
L 113.341538 348.365 
L 113.341538 334.360982 
L 107.584921 334.360982 
z
" clip-path="url(#p4c7547e153)" style="fill: #d97706"/>
   </g>
   <g id="patch_57">
    <path d="M 114.780692 348.365 
L 120.537309 348.365 
L 120.537309 331.560179 
L 114.780692 331.560179 
z
" clip-path="url(#p4c7547e153)" style="fill: #d97706"/>
   </g>
   <g id="patch_58">
    <path d="M 121.976463 348.365 
L 127.73308 348.365 
L 127.73308 334.360982 
L 121.976463 334.360982 
z
" clip-path="url(#p4c7547e153)" style="fill: #d97706"/>
   </g>
   <g id="patch_59">
    <path d="M 129.172234 348.365 
L 134.928851 348.365 
L 134.928851 300.751339 
L 129.172234 300.751339 
z
" clip-path="url(#p4c7547e153)" style="fill: #d97706"/>
   </g>
   <g id="patch_60">
    <path d="M 136.368005 348.365 
L 142.124622 348.365 
L 142.124622 331.560179 
L 136.368005 331.560179 
z
" clip-path="url(#p4c7547e153)" style="fill: #d97706"/>
   </g>
   <g id="patch_61">
    <path d="M 143.563776 348.365 
L 149.320393 348.365 
L 149.320393 328.759375 
L 143.563776 328.759375 
z
" clip-path="url(#p4c7547e153)" style="fill: #d97706"/>
   </g>
   <g id="patch_62">
    <path d="M 150.759547 348.365 
L 156.516164 348.365 
L 156.516164 339.962589 
L 150.759547 339.962589 
z
" clip-path="url(#p4c7547e153)" style="fill: #d97706"/>
   </g>
   <g id="patch_63">
    <path d="M 157.955318 348.365 
L 163.711935 348.365 
L 163.711935 309.15375 
L 157.955318 309.15375 
z
" clip-path="url(#p4c7547e153)" style="fill: #d97706"/>
   </g>
   <g id="patch_64">
    <path d="M 165.151089 348.365 
L 170.907706 348.365 
L 170.907706 339.962589 
L 165.151089 339.962589 
z
" clip-path="url(#p4c7547e153)" style="fill: #d97706"/>
   </g>
   <g id="patch_65">
    <path d="M 172.34686 348.365 
L 178.103477 348.365 
L 178.103477 317.556161 
L 172.34686 317.556161 
z
" clip-path="url(#p4c7547e153)" style="fill: #d97706"/>
   </g>
   <g id="patch_66">
    <path d="M 179.542631 348.365 
L 185.299248 348.365 
L 185.299248 328.759375 
L 179.542631 328.759375 
z
" clip-path="url(#p4c7547e153)" style="fill: #d97706"/>
   </g>
   <g id="patch_67">
    <path d="M 186.738402 348.365 
L 192.495019 348.365 
L 192.495019 328.759375 
L 186.738402 328.759375 
z
" clip-path="url(#p4c7547e153)" style="fill: #d97706"/>
   </g>
   <g id="patch_68">
    <path d="M 193.934173 348.365 
L 199.69079 348.365 
L 199.69079 323.157768 
L 193.934173 323.157768 
z
" clip-path="url(#p4c7547e153)" style="fill: #d97706"/>
   </g>
   <g id="patch_69">
    <path d="M 201.129944 348.365 
L 206.88656 348.365 
L 206.88656 295.149732 
L 201.129944 295.149732 
z
" clip-path="url(#p4c7547e153)" style="fill: #d97706"/>
   </g>
   <g id="patch_70">
    <path d="M 208.325715 348.365 
L 214.082331 348.365 
L 214.082331 328.759375 
L 208.325715 328.759375 
z
" clip-path="url(#p4c7547e153)" style="fill: #d97706"/>
   </g>
   <g id="patch_71">
    <path d="M 215.521486 348.365 
L 221.278102 348.365 
L 221.278102 300.751339 
L 215.521486 300.751339 
z
" clip-path="url(#p4c7547e153)" style="fill: #d97706"/>
   </g>
   <g id="patch_72">
    <path d="M 222.717257 348.365 
L 228.473873 348.365 
L 228.473873 314.755357 
L 222.717257 314.755357 
z
" clip-path="url(#p4c7547e153)" style="fill: #d97706"/>
   </g>
   <g id="patch_73">
    <path d="M 229.913028 348.365 
L 235.669644 348.365 
L 235.669644 317.556161 
L 229.913028 317.556161 
z
" clip-path="url(#p4c7547e153)" style="fill: #d97706"/>
   </g>
   <g id="patch_74">
    <path d="M 237.108798 348.365 
L 242.865415 348.365 
L 242.865415 300.751339 
L 237.108798 300.751339 
z
" clip-path="url(#p4c7547e153)" style="fill: #d97706"/>
   </g>
   <g id="patch_75">
    <path d="M 244.304569 348.365 
L 250.061186 348.365 
L 250.061186 314.755357 
L 244.304569 314.755357 
z
" clip-path="url(#p4c7547e153)" style="fill: #d97706"/>
   </g>
   <g id="patch_76">
    <path d="M 251.50034 348.365 
L 257.256957 348.365 
L 257.256957 331.560179 
L 251.50034 331.560179 
z
" clip-path="url(#p4c7547e153)" style="fill: #d97706"/>
   </g>
   <g id="patch_77">
    <path d="M 258.696111 348.365 
L 264.452728 348.365 
L 264.452728 328.759375 
L 258.696111 328.759375 
z
" clip-path="url(#p4c7547e153)" style="fill: #d97706"/>
   </g>
   <g id="patch_78">
    <path d="M 265.891882 348.365 
L 271.648499 348.365 
L 271.648499 323.157768 
L 265.891882 323.157768 
z
" clip-path="url(#p4c7547e153)" style="fill: #d97706"/>
   </g>
   <g id="patch_79">
    <path d="M 273.087653 348.365 
L 278.84427 348.365 
L 278.84427 317.556161 
L 273.087653 317.556161 
z
" clip-path="url(#p4c7547e153)" style="fill: #d97706"/>
   </g>
   <g id="patch_80">
    <path d="M 280.283424 348.365 
L 286.040041 348.365 
L 286.040041 334.360982 
L 280.283424 334.360982 
z
" clip-path="url(#p4c7547e153)" style="fill: #d97706"/>
   </g>
   <g id="patch_81">
    <path d="M 287.479195 348.365 
L 293.235812 348.365 
L 293.235812 323.157768 
L 287.479195 323.157768 
z
" clip-path="url(#p4c7547e153)" style="fill: #d97706"/>
   </g>
   <g id="patch_82">
    <path d="M 294.674966 348.365 
L 300.431583 348.365 
L 300.431583 320.356964 
L 294.674966 320.356964 
z
" clip-path="url(#p4c7547e153)" style="fill: #d97706"/>
   </g>
   <g id="patch_83">
    <path d="M 301.870737 348.365 
L 307.627354 348.365 
L 307.627354 328.759375 
L 301.870737 328.759375 
z
" clip-path="url(#p4c7547e153)" style="fill: #d97706"/>
   </g>
   <g id="patch_84">
    <path d="M 309.066508 348.365 
L 314.823125 348.365 
L 314.823125 320.356964 
L 309.066508 320.356964 
z
" clip-path="url(#p4c7547e153)" style="fill: #d97706"/>
   </g>
   <g id="patch_85">
    <path d="M 316.262279 348.365 
L 322.018896 348.365 
L 322.018896 325.958571 
L 316.262279 325.958571 
z
" clip-path="url(#p4c7547e153)" style="fill: #d97706"/>
   </g>
   <g id="patch_86">
    <path d="M 323.45805 348.365 
L 329.214667 348.365 
L 329.214667 314.755357 
L 323.45805 314.755357 
z
" clip-path="url(#p4c7547e153)" style="fill: #d97706"/>
   </g>
   <g id="patch_87">
    <path d="M 330.653821 348.365 
L 336.410438 348.365 
L 336.410438 328.759375 
L 330.653821 328.759375 
z
" clip-path="url(#p4c7547e153)" style="fill: #d97706"/>
   </g>
   <g id="patch_88">
    <path d="M 337.849592 348.365 
L 343.606209 348.365 
L 343.606209 323.157768 
L 337.849592 323.157768 
z
" clip-path="url(#p4c7547e153)" style="fill: #d97706"/>
   </g>
   <g id="patch_89">
    <path d="M 345.045363 348.365 
L 350.80198 348.365 
L 350.80198 331.560179 
L 345.045363 331.560179 
z
" clip-path="url(#p4c7547e153)" style="fill: #d97706"/>
   </g>
   <g id="patch_90">
    <path d="M 352.241134 348.365 
L 357.99775 348.365 
L 357.99775 323.157768 
L 352.241134 323.157768 
z
" clip-path="url(#p4c7547e153)" style="fill: #d97706"/>
   </g>
   <g id="patch_91">
    <path d="M 359.436905 348.365 
L 365.193521 348.365 
L 365.193521 325.958571 
L 359.436905 325.958571 
z
" clip-path="url(#p4c7547e153)" style="fill: #d97706"/>
   </g>
   <g id="patch_92">
    <path d="M 366.632676 348.365 
L 372.389292 348.365 
L 372.389292 328.759375 
L 366.632676 328.759375 
z
" clip-path="url(#p4c7547e153)" style="fill: #d97706"/>
   </g>
   <g id="patch_93">
    <path d="M 373.828447 348.365 
L 379.585063 348.365 
L 379.585063 328.759375 
L 373.828447 328.759375 
z
" clip-path="url(#p4c7547e153)" style="fill: #d97706"/>
   </g>
   <g id="patch_94">
    <path d="M 381.024218 348.365 
L 386.780834 348.365 
L 386.780834 323.157768 
L 381.024218 323.157768 
z
" clip-path="url(#p4c7547e153)" style="fill: #d97706"/>
   </g>
   <g id="patch_95">
    <path d="M 388.219988 348.365 
L 393.976605 348.365 
L 393.976605 320.356964 
L 388.219988 320.356964 
z
" clip-path="url(#p4c7547e153)" style="fill: #d97706"/>
   </g>
   <g id="patch_96">
    <path d="M 395.415759 348.365 
L 401.172376 348.365 
L 401.172376 325.958571 
L 395.415759 325.958571 
z
" clip-path="url(#p4c7547e153)" style="fill: #d97706"/>
   </g>
   <g id="patch_97">
    <path d="M 402.61153 348.365 
L 408.368147 348.365 
L 408.368147 314.755357 
L 402.61153 314.755357 
z
" clip-path="url(#p4c7547e153)" style="fill: #d97706"/>
   </g>
   <g id="patch_98">
    <path d="M 409.807301 348.365 
L 415.563918 348.365 
L 415.563918 331.560179 
L 409.807301 331.560179 
z
" clip-path="url(#p4c7547e153)" style="fill: #d97706"/>
   </g>
   <g id="patch_99">
    <path d="M 417.003072 348.365 
L 422.759689 348.365 
L 422.759689 325.958571 
L 417.003072 325.958571 
z
" clip-path="url(#p4c7547e153)" style="fill: #d97706"/>
   </g>
   <g id="patch_100">
    <path d="M 424.198843 348.365 
L 429.95546 348.365 
L 429.95546 334.360982 
L 424.198843 334.360982 
z
" clip-path="url(#p4c7547e153)" style="fill: #d97706"/>
   </g>
   <g id="patch_101">
    <path d="M 431.394614 348.365 
L 437.151231 348.365 
L 437.151231 337.161786 
L 431.394614 337.161786 
z
" clip-path="url(#p4c7547e153)" style="fill: #d97706"/>
   </g>
   <g id="patch_102">
    <path d="M 438.590385 348.365 
L 444.347002 348.365 
L 444.347002 339.962589 
L 438.590385 339.962589 
z
" clip-path="url(#p4c7547e153)" style="fill: #d97706"/>
   </g>
   <g id="patch_103">
    <path d="M 445.786156 348.365 
L 451.542773 348.365 
L 451.542773 337.161786 
L 445.786156 337.161786 
z
" clip-path="url(#p4c7547e153)" style="fill: #d97706"/>
   </g>
   <g id="patch_104">
    <path d="M 452.981927 348.365 
L 458.738544 348.365 
L 458.738544 339.962589 
L 452.981927 339.962589 
z
" clip-path="url(#p4c7547e153)" style="fill: #d97706"/>
   </g>
   <g id="patch_105">
    <path d="M 460.177698 348.365 
L 465.934315 348.365 
L 465.934315 331.560179 
L 460.177698 331.560179 
z
" clip-path="url(#p4c7547e153)" style="fill: #d97706"/>
   </g>
   <g id="patch_106">
    <path d="M 467.373469 348.365 
L 473.130086 348.365 
L 473.130086 323.157768 
L 467.373469 323.157768 
z
" clip-path="url(#p4c7547e153)" style="fill: #d97706"/>
   </g>
   <g id="patch_107">
    <path d="M 474.56924 348.365 
L 480.325857 348.365 
L 480.325857 320.356964 
L 474.56924 320.356964 
z
" clip-path="url(#p4c7547e153)" style="fill: #d97706"/>
   </g>
   <g id="patch_108">
    <path d="M 481.765011 348.365 
L 487.521628 348.365 
L 487.521628 306.352946 
L 481.765011 306.352946 
z
" clip-path="url(#p4c7547e153)" style="fill: #d97706"/>
   </g>
   <g id="patch_109">
    <path d="M 488.960782 348.365 
L 494.717399 348.365 
L 494.717399 309.15375 
L 488.960782 309.15375 
z
" clip-path="url(#p4c7547e153)" style="fill: #d97706"/>
   </g>
   <g id="matplotlib.axis_3">
    <g id="xtick_6">
     <g id="line2d_12"/>
     <g id="text_14">
      <!-- 0 -->
      <g style="fill: #6b7280" transform="translate(71.704687 361.385) scale(0.1 -0.1)">
       <use xlink:href="#HelveticaNeue-17"/>
      </g>
     </g>
    </g>
    <g id="xtick_7">
     <g id="line2d_13"/>
     <g id="text_15">
      <!-- 10 -->
      <g style="fill: #6b7280" transform="translate(140.882709 361.385) scale(0.1 -0.1)">
       <use xlink:href="#HelveticaNeue-18"/>
       <use xlink:href="#HelveticaNeue-17" transform="translate(55.59375 0)"/>
      </g>
     </g>
    </g>
    <g id="xtick_8">
     <g id="line2d_14"/>
     <g id="text_16">
      <!-- 20 -->
      <g style="fill: #6b7280" transform="translate(212.840419 361.385) scale(0.1 -0.1)">
       <use xlink:href="#HelveticaNeue-19"/>
       <use xlink:href="#HelveticaNeue-17" transform="translate(55.59375 0)"/>
      </g>
     </g>
    </g>
    <g id="xtick_9">
     <g id="line2d_15"/>
     <g id="text_17">
      <!-- 30 -->
      <g style="fill: #6b7280" transform="translate(284.798129 361.385) scale(0.1 -0.1)">
       <use xlink:href="#HelveticaNeue-1a"/>
       <use xlink:href="#HelveticaNeue-17" transform="translate(55.59375 0)"/>
      </g>
     </g>
    </g>
    <g id="xtick_10">
     <g id="line2d_16"/>
     <g id="text_18">
      <!-- 40 -->
      <g style="fill: #6b7280" transform="translate(356.755838 361.385) scale(0.1 -0.1)">
       <use xlink:href="#HelveticaNeue-1b"/>
       <use xlink:href="#HelveticaNeue-17" transform="translate(55.59375 0)"/>
      </g>
     </g>
    </g>
    <g id="xtick_11">
     <g id="line2d_17"/>
     <g id="text_19">
      <!-- 50 -->
      <g style="fill: #6b7280" transform="translate(428.713548 361.385) scale(0.1 -0.1)">
       <defs>
        <path id="HelveticaNeue-1c" d="M 3008 3981 
L 3008 4461 
L 768 4461 
L 346 2106 
L 813 2080 
Q 973 2272 1181 2390 
Q 1389 2509 1658 2509 
Q 1888 2509 2077 2432 
Q 2266 2355 2400 2217 
Q 2534 2080 2608 1891 
Q 2682 1702 2682 1478 
Q 2682 1210 2605 1008 
Q 2528 806 2397 672 
Q 2266 538 2090 470 
Q 1914 403 1722 403 
Q 1517 403 1347 464 
Q 1178 525 1053 637 
Q 928 749 854 899 
Q 781 1050 768 1222 
L 224 1222 
Q 230 915 345 672 
Q 461 429 659 265 
Q 858 102 1117 16 
Q 1376 -70 1670 -70 
Q 2067 -70 2364 54 
Q 2662 179 2860 390 
Q 3059 602 3158 874 
Q 3258 1146 3258 1434 
Q 3258 1824 3142 2115 
Q 3027 2406 2828 2601 
Q 2630 2797 2361 2893 
Q 2093 2989 1792 2989 
Q 1562 2989 1328 2909 
Q 1094 2829 947 2662 
L 934 2675 
L 1178 3981 
L 3008 3981 
z
" transform="scale(0.015625)"/>
       </defs>
       <use xlink:href="#HelveticaNeue-1c"/>
       <use xlink:href="#HelveticaNeue-17" transform="translate(55.59375 0)"/>
      </g>
     </g>
    </g>
    <g id="xtick_12">
     <g id="line2d_18"/>
     <g id="text_20">
      <!-- 60 -->
      <g style="fill: #6b7280" transform="translate(500.671257 361.385) scale(0.1 -0.1)">
       <use xlink:href="#HelveticaNeue-1d"/>
       <use xlink:href="#HelveticaNeue-17" transform="translate(55.59375 0)"/>
      </g>
     </g>
    </g>
    <g id="text_21">
     <!-- sentence number (first 60 sentences) -->
     <g style="fill: #1f2933" transform="translate(208.97642 376.083) scale(0.09 -0.09)">
      <defs>
       <path id="HelveticaNeue-4a" d="M 2656 2246 
L 3219 2246 
Q 3187 2541 3065 2755 
Q 2944 2970 2755 3110 
Q 2566 3251 2320 3318 
Q 2074 3386 1792 3386 
Q 1402 3386 1107 3248 
Q 813 3110 617 2870 
Q 422 2630 326 2307 
Q 230 1984 230 1613 
Q 230 1242 329 931 
Q 429 621 624 397 
Q 819 173 1110 51 
Q 1402 -70 1779 -70 
Q 2413 -70 2781 262 
Q 3149 595 3238 1210 
L 2682 1210 
Q 2630 826 2403 614 
Q 2176 403 1773 403 
Q 1517 403 1331 505 
Q 1146 608 1030 777 
Q 915 947 860 1164 
Q 806 1382 806 1613 
Q 806 1862 857 2096 
Q 909 2330 1027 2509 
Q 1146 2688 1344 2797 
Q 1542 2906 1837 2906 
Q 2182 2906 2387 2733 
Q 2592 2560 2656 2246 
z
" transform="scale(0.015625)"/>
       <path id="HelveticaNeue-c4" d="M 2336 0 
L 2880 0 
L 2880 3309 
L 2336 3309 
L 2336 0 
z
M 2336 3904 
L 2880 3904 
L 2880 4570 
L 2336 4570 
L 2336 3904 
z
M 634 2829 
L 634 0 
L 1178 0 
L 1178 2829 
L 1818 2829 
L 1818 3309 
L 1178 3309 
L 1178 3770 
Q 1178 3987 1286 4064 
Q 1395 4141 1594 4141 
Q 1664 4141 1747 4131 
Q 1830 4122 1901 4096 
L 1901 4570 
Q 1824 4595 1725 4608 
Q 1626 4621 1549 4621 
Q 1101 4621 867 4413 
Q 634 4205 634 3802 
L 634 3309 
L 77 3309 
L 77 2829 
L 634 2829 
z
" transform="scale(0.015625)"/>
      </defs>
      <use xlink:href="#HelveticaNeue-5a"/>
      <use xlink:href="#HelveticaNeue-4c" transform="translate(50 0)"/>
      <use xlink:href="#HelveticaNeue-55" transform="translate(103.703125 0)"/>
      <use xlink:href="#HelveticaNeue-5b" transform="translate(159.296875 0)"/>
      <use xlink:href="#HelveticaNeue-4c" transform="translate(190.796875 0)"/>
      <use xlink:href="#HelveticaNeue-55" transform="translate(244.5 0)"/>
      <use xlink:href="#HelveticaNeue-4a" transform="translate(300.09375 0)"/>
      <use xlink:href="#HelveticaNeue-4c" transform="translate(353.796875 0)"/>
      <use xlink:href="#HelveticaNeue-3" transform="translate(407.5 0)"/>
      <use xlink:href="#HelveticaNeue-55" transform="translate(435.296875 0)"/>
      <use xlink:href="#HelveticaNeue-5c" transform="translate(490.890625 0)"/>
      <use xlink:href="#HelveticaNeue-54" transform="translate(546.484375 0)"/>
      <use xlink:href="#HelveticaNeue-49" transform="translate(631.78125 0)"/>
      <use xlink:href="#HelveticaNeue-4c" transform="translate(691.078125 0)"/>
      <use xlink:href="#HelveticaNeue-59" transform="translate(744.78125 0)"/>
      <use xlink:href="#HelveticaNeue-3" transform="translate(778.078125 0)"/>
      <use xlink:href="#HelveticaNeue-f" transform="translate(805.875 0)"/>
      <use xlink:href="#HelveticaNeue-c4" transform="translate(831.78125 0)"/>
      <use xlink:href="#HelveticaNeue-59" transform="translate(883.578125 0)"/>
      <use xlink:href="#HelveticaNeue-5a" transform="translate(916.875 0)"/>
      <use xlink:href="#HelveticaNeue-5b" transform="translate(966.875 0)"/>
      <use xlink:href="#HelveticaNeue-3" transform="translate(998.375 0)"/>
      <use xlink:href="#HelveticaNeue-1d" transform="translate(1026.171875 0)"/>
      <use xlink:href="#HelveticaNeue-17" transform="translate(1081.765625 0)"/>
      <use xlink:href="#HelveticaNeue-3" transform="translate(1137.359375 0)"/>
      <use xlink:href="#HelveticaNeue-5a" transform="translate(1165.15625 0)"/>
      <use xlink:href="#HelveticaNeue-4c" transform="translate(1215.15625 0)"/>
      <use xlink:href="#HelveticaNeue-55" transform="translate(1268.859375 0)"/>
      <use xlink:href="#HelveticaNeue-5b" transform="translate(1324.453125 0)"/>
      <use xlink:href="#HelveticaNeue-4c" transform="translate(1355.953125 0)"/>
      <use xlink:href="#HelveticaNeue-55" transform="translate(1409.65625 0)"/>
      <use xlink:href="#HelveticaNeue-4a" transform="translate(1465.25 0)"/>
      <use xlink:href="#HelveticaNeue-4c" transform="translate(1518.953125 0)"/>
      <use xlink:href="#HelveticaNeue-5a" transform="translate(1572.65625 0)"/>
      <use xlink:href="#HelveticaNeue-10" transform="translate(1622.65625 0)"/>
     </g>
    </g>
   </g>
   <g id="matplotlib.axis_4">
    <g id="ytick_6">
     <g id="line2d_19"/>
     <g id="text_22">
      <!-- 0 -->
      <g style="fill: #1f2933" transform="translate(41.391125 353.125) scale(0.1 -0.1)">
       <use xlink:href="#HelveticaNeue-17"/>
      </g>
     </g>
    </g>
    <g id="ytick_7">
     <g id="line2d_20"/>
     <g id="text_23">
      <!-- 10 -->
      <g style="fill: #1f2933" transform="translate(35.83175 325.116964) scale(0.1 -0.1)">
       <use xlink:href="#HelveticaNeue-18"/>
       <use xlink:href="#HelveticaNeue-17" transform="translate(55.59375 0)"/>
      </g>
     </g>
    </g>
    <g id="ytick_8">
     <g id="line2d_21"/>
     <g id="text_24">
      <!-- 20 -->
      <g style="fill: #1f2933" transform="translate(35.83175 297.108929) scale(0.1 -0.1)">
       <use xlink:href="#HelveticaNeue-19"/>
       <use xlink:href="#HelveticaNeue-17" transform="translate(55.59375 0)"/>
      </g>
     </g>
    </g>
    <g id="ytick_9">
     <g id="line2d_22"/>
     <g id="text_25">
      <!-- 30 -->
      <g style="fill: #1f2933" transform="translate(35.83175 269.100893) scale(0.1 -0.1)">
       <use xlink:href="#HelveticaNeue-1a"/>
       <use xlink:href="#HelveticaNeue-17" transform="translate(55.59375 0)"/>
      </g>
     </g>
    </g>
    <g id="ytick_10">
     <g id="line2d_23"/>
     <g id="text_26">
      <!-- 40 -->
      <g style="fill: #1f2933" transform="translate(35.83175 241.092857) scale(0.1 -0.1)">
       <use xlink:href="#HelveticaNeue-1b"/>
       <use xlink:href="#HelveticaNeue-17" transform="translate(55.59375 0)"/>
      </g>
     </g>
    </g>
    <g id="text_27">
     <!-- longest run -->
     <g style="fill: #1f2933" transform="translate(19.76175 310.802109) rotate(-90) scale(0.085 -0.085)">
      <use xlink:href="#HelveticaNeue-53"/>
      <use xlink:href="#HelveticaNeue-56" transform="translate(22.203125 0)"/>
      <use xlink:href="#HelveticaNeue-55" transform="translate(79.609375 0)"/>
      <use xlink:href="#HelveticaNeue-4e" transform="translate(135.203125 0)"/>
      <use xlink:href="#HelveticaNeue-4c" transform="translate(192.609375 0)"/>
      <use xlink:href="#HelveticaNeue-5a" transform="translate(246.3125 0)"/>
      <use xlink:href="#HelveticaNeue-5b" transform="translate(296.3125 0)"/>
      <use xlink:href="#HelveticaNeue-3" transform="translate(327.8125 0)"/>
      <use xlink:href="#HelveticaNeue-59" transform="translate(355.609375 0)"/>
      <use xlink:href="#HelveticaNeue-5c" transform="translate(388.90625 0)"/>
      <use xlink:href="#HelveticaNeue-55" transform="translate(444.5 0)"/>
     </g>
     <!-- (words) -->
     <g style="fill: #1f2933" transform="translate(29.90225 303.395156) rotate(-90) scale(0.085 -0.085)">
      <use xlink:href="#HelveticaNeue-f"/>
      <use xlink:href="#HelveticaNeue-5e" transform="translate(25.90625 0)"/>
      <use xlink:href="#HelveticaNeue-56" transform="translate(101.703125 0)"/>
      <use xlink:href="#HelveticaNeue-59" transform="translate(159.109375 0)"/>
      <use xlink:href="#HelveticaNeue-4b" transform="translate(190.609375 0)"/>
      <use xlink:href="#HelveticaNeue-5a" transform="translate(249.90625 0)"/>
      <use xlink:href="#HelveticaNeue-10" transform="translate(299.90625 0)"/>
     </g>
    </g>
   </g>
   <g id="line2d_24">
    <path d="M 50.4505 320.356964 
L 515.872965 320.356964 
" clip-path="url(#p4c7547e153)" style="fill: none; stroke-dasharray: 3.7,1.6; stroke-dashoffset: 0; stroke: #6b7280"/>
   </g>
   <g id="patch_110">
    <path d="M 50.4505 348.365 
L 50.4505 230.73125 
" style="fill: none; stroke: #d1d5db; stroke-width: 0.8; stroke-linejoin: miter; stroke-linecap: square"/>
   </g>
   <g id="patch_111">
    <path d="M 515.872965 348.365 
L 515.872965 230.73125 
" style="fill: none; stroke: #d1d5db; stroke-width: 0.8; stroke-linejoin: miter; stroke-linecap: square"/>
   </g>
   <g id="patch_112">
    <path d="M 50.4505 348.365 
L 515.872965 348.365 
" style="fill: none; stroke: #d1d5db; stroke-width: 0.8; stroke-linejoin: miter; stroke-linecap: square"/>
   </g>
   <g id="patch_113">
    <path d="M 50.4505 230.73125 
L 515.872965 230.73125 
" style="fill: none; stroke: #d1d5db; stroke-width: 0.8; stroke-linejoin: miter; stroke-linecap: square"/>
   </g>
   <g id="text_28">
    <!-- crabbox.sh landing page (AI)   flow = 0.41 -->
    <g style="fill: #1f2933" transform="translate(50.4505 224.73125) scale(0.1 -0.1)">
     <defs>
      <path id="HelveticaNeue-5f" d="M 1299 1741 
L 58 0 
L 717 0 
L 1638 1370 
L 2560 0 
L 3258 0 
L 1978 1786 
L 3117 3309 
L 2464 3309 
L 1638 2150 
L 845 3309 
L 147 3309 
L 1299 1741 
z
" transform="scale(0.015625)"/>
      <path id="HelveticaNeue-28" d="M 1286 1888 
L 2061 4019 
L 2074 4019 
L 2835 1888 
L 1286 1888 
z
M 1741 4570 
L -38 0 
L 582 0 
L 1094 1376 
L 3027 1376 
L 3526 0 
L 4198 0 
L 2413 4570 
L 1741 4570 
z
" transform="scale(0.015625)"/>
      <path id="HelveticaNeue-30" d="M 525 4570 
L 525 0 
L 1133 0 
L 1133 4570 
L 525 4570 
z
" transform="scale(0.015625)"/>
     </defs>
     <use xlink:href="#HelveticaNeue-4a"/>
     <use xlink:href="#HelveticaNeue-59" transform="translate(53.703125 0)"/>
     <use xlink:href="#HelveticaNeue-48" transform="translate(87 0)"/>
     <use xlink:href="#HelveticaNeue-49" transform="translate(140.703125 0)"/>
     <use xlink:href="#HelveticaNeue-49" transform="translate(200 0)"/>
     <use xlink:href="#HelveticaNeue-56" transform="translate(259.296875 0)"/>
     <use xlink:href="#HelveticaNeue-5f" transform="translate(316.703125 0)"/>
     <use xlink:href="#HelveticaNeue-15" transform="translate(368.5 0)"/>
     <use xlink:href="#HelveticaNeue-5a" transform="translate(396.296875 0)"/>
     <use xlink:href="#HelveticaNeue-4f" transform="translate(446.296875 0)"/>
     <use xlink:href="#HelveticaNeue-3" transform="translate(501.890625 0)"/>
     <use xlink:href="#HelveticaNeue-53" transform="translate(529.6875 0)"/>
     <use xlink:href="#HelveticaNeue-48" transform="translate(551.890625 0)"/>
     <use xlink:href="#HelveticaNeue-55" transform="translate(605.59375 0)"/>
     <use xlink:href="#HelveticaNeue-4b" transform="translate(661.1875 0)"/>
     <use xlink:href="#HelveticaNeue-50" transform="translate(720.484375 0)"/>
     <use xlink:href="#HelveticaNeue-55" transform="translate(742.6875 0)"/>
     <use xlink:href="#HelveticaNeue-4e" transform="translate(798.28125 0)"/>
     <use xlink:href="#HelveticaNeue-3" transform="translate(855.6875 0)"/>
     <use xlink:href="#HelveticaNeue-57" transform="translate(883.484375 0)"/>
     <use xlink:href="#HelveticaNeue-48" transform="translate(942.78125 0)"/>
     <use xlink:href="#HelveticaNeue-4e" transform="translate(996.484375 0)"/>
     <use xlink:href="#HelveticaNeue-4c" transform="translate(1053.890625 0)"/>
     <use xlink:href="#HelveticaNeue-3" transform="translate(1107.59375 0)"/>
     <use xlink:href="#HelveticaNeue-f" transform="translate(1135.390625 0)"/>
     <use xlink:href="#HelveticaNeue-28" transform="translate(1161.296875 0)"/>
     <use xlink:href="#HelveticaNeue-30" transform="translate(1226.09375 0)"/>
     <use xlink:href="#HelveticaNeue-10" transform="translate(1252 0)"/>
     <use xlink:href="#HelveticaNeue-3" transform="translate(1277.90625 0)"/>
     <use xlink:href="#HelveticaNeue-3" transform="translate(1305.703125 0)"/>
     <use xlink:href="#HelveticaNeue-3" transform="translate(1333.5 0)"/>
     <use xlink:href="#HelveticaNeue-c5" transform="translate(1361.296875 0)"/>
     <use xlink:href="#HelveticaNeue-56" transform="translate(1413.09375 0)"/>
     <use xlink:href="#HelveticaNeue-5e" transform="translate(1470.5 0)"/>
     <use xlink:href="#HelveticaNeue-3" transform="translate(1546.296875 0)"/>
     <use xlink:href="#HelveticaNeue-24" transform="translate(1574.09375 0)"/>
     <use xlink:href="#HelveticaNeue-3" transform="translate(1634.09375 0)"/>
     <use xlink:href="#HelveticaNeue-17" transform="translate(1661.890625 0)"/>
     <use xlink:href="#HelveticaNeue-15" transform="translate(1717.484375 0)"/>
     <use xlink:href="#HelveticaNeue-1b" transform="translate(1745.28125 0)"/>
     <use xlink:href="#HelveticaNeue-18" transform="translate(1800.875 0)"/>
    </g>
   </g>
  </g>
  <g id="text_29">
   <!-- The longest unbroken run of words in each sentence, in order -->
   <g style="fill: #1f2933" transform="translate(41.472 19.9635) scale(0.125 -0.125)">
    <defs>
     <path id="HelveticaNeue-Bold-3b" d="M 1453 3725 
L 1453 0 
L 2458 0 
L 2458 3725 
L 3827 3725 
L 3827 4570 
L 83 4570 
L 83 3725 
L 1453 3725 
z
" transform="scale(0.015625)"/>
     <path id="HelveticaNeue-Bold-4f" d="M 346 4570 
L 346 0 
L 1254 0 
L 1254 1734 
Q 1254 2240 1420 2461 
Q 1587 2682 1958 2682 
Q 2285 2682 2413 2480 
Q 2541 2278 2541 1869 
L 2541 0 
L 3450 0 
L 3450 2035 
Q 3450 2342 3395 2595 
Q 3341 2848 3206 3024 
Q 3072 3200 2838 3299 
Q 2605 3398 2240 3398 
Q 1984 3398 1715 3267 
Q 1446 3136 1274 2848 
L 1254 2848 
L 1254 4570 
L 346 4570 
z
" transform="scale(0.015625)"/>
     <path id="HelveticaNeue-Bold-4c" d="M 2573 2010 
L 1094 2010 
Q 1101 2106 1136 2227 
Q 1171 2349 1257 2457 
Q 1344 2566 1488 2640 
Q 1632 2714 1850 2714 
Q 2182 2714 2345 2534 
Q 2509 2355 2573 2010 
z
M 1094 1434 
L 3482 1434 
Q 3507 1818 3417 2170 
Q 3328 2522 3126 2797 
Q 2925 3072 2611 3235 
Q 2298 3398 1875 3398 
Q 1498 3398 1187 3264 
Q 877 3130 653 2896 
Q 429 2662 307 2342 
Q 186 2022 186 1651 
Q 186 1267 304 947 
Q 422 627 640 396 
Q 858 166 1171 41 
Q 1485 -83 1875 -83 
Q 2438 -83 2835 173 
Q 3232 429 3424 1024 
L 2624 1024 
Q 2579 870 2380 732 
Q 2182 595 1907 595 
Q 1523 595 1318 793 
Q 1114 992 1094 1434 
z
" transform="scale(0.015625)"/>
     <path id="HelveticaNeue-Bold-3" transform="scale(0.015625)"/>
     <path id="HelveticaNeue-Bold-53" d="M 371 4570 
L 371 0 
L 1280 0 
L 1280 4570 
L 371 4570 
z
" transform="scale(0.015625)"/>
     <path id="HelveticaNeue-Bold-56" d="M 1152 1651 
Q 1152 1850 1190 2042 
Q 1229 2234 1321 2381 
Q 1414 2528 1568 2621 
Q 1722 2714 1952 2714 
Q 2182 2714 2339 2621 
Q 2496 2528 2589 2381 
Q 2682 2234 2720 2042 
Q 2758 1850 2758 1651 
Q 2758 1453 2720 1264 
Q 2682 1075 2589 924 
Q 2496 774 2339 684 
Q 2182 595 1952 595 
Q 1722 595 1568 684 
Q 1414 774 1321 924 
Q 1229 1075 1190 1264 
Q 1152 1453 1152 1651 
z
M 243 1651 
Q 243 1254 364 934 
Q 486 614 710 387 
Q 934 160 1248 38 
Q 1562 -83 1952 -83 
Q 2342 -83 2659 38 
Q 2976 160 3200 387 
Q 3424 614 3545 934 
Q 3667 1254 3667 1651 
Q 3667 2048 3545 2371 
Q 3424 2694 3200 2921 
Q 2976 3149 2659 3273 
Q 2342 3398 1952 3398 
Q 1562 3398 1248 3273 
Q 934 3149 710 2921 
Q 486 2694 364 2371 
Q 243 2048 243 1651 
z
" transform="scale(0.015625)"/>
     <path id="HelveticaNeue-Bold-55" d="M 346 3309 
L 346 0 
L 1254 0 
L 1254 1734 
Q 1254 2240 1420 2461 
Q 1587 2682 1958 2682 
Q 2285 2682 2413 2480 
Q 2541 2278 2541 1869 
L 2541 0 
L 3450 0 
L 3450 2035 
Q 3450 2342 3395 2595 
Q 3341 2848 3206 3024 
Q 3072 3200 2838 3299 
Q 2605 3398 2240 3398 
Q 1952 3398 1677 3267 
Q 1402 3136 1229 2848 
L 1210 2848 
L 1210 3309 
L 346 3309 
z
" transform="scale(0.015625)"/>
     <path id="HelveticaNeue-Bold-4e" d="M 1888 781 
Q 1677 781 1536 870 
Q 1395 960 1308 1101 
Q 1222 1242 1187 1418 
Q 1152 1594 1152 1773 
Q 1152 1958 1193 2128 
Q 1235 2298 1328 2429 
Q 1421 2560 1558 2637 
Q 1696 2714 1888 2714 
Q 2112 2714 2259 2630 
Q 2406 2547 2496 2406 
Q 2586 2266 2624 2083 
Q 2662 1901 2662 1696 
Q 2662 1517 2614 1353 
Q 2566 1190 2470 1062 
Q 2374 934 2227 857 
Q 2080 781 1888 781 
z
M 3526 211 
L 3526 3309 
L 2662 3309 
L 2662 2867 
L 2650 2867 
Q 2483 3155 2236 3276 
Q 1990 3398 1664 3398 
Q 1318 3398 1052 3264 
Q 787 3130 608 2902 
Q 429 2675 336 2377 
Q 243 2080 243 1760 
Q 243 1421 323 1117 
Q 403 813 576 585 
Q 749 358 1017 227 
Q 1286 96 1658 96 
Q 1958 96 2230 221 
Q 2502 346 2650 608 
L 2662 608 
L 2662 173 
Q 2669 -179 2493 -409 
Q 2317 -640 1933 -640 
Q 1690 -640 1504 -541 
Q 1318 -442 1254 -186 
L 352 -186 
Q 371 -467 508 -668 
Q 646 -870 854 -998 
Q 1062 -1126 1315 -1187 
Q 1568 -1248 1811 -1248 
Q 2381 -1248 2720 -1094 
Q 3059 -941 3238 -720 
Q 3418 -499 3472 -243 
Q 3526 13 3526 211 
z
" transform="scale(0.015625)"/>
     <path id="HelveticaNeue-Bold-5a" d="M 1050 1075 
L 186 1075 
Q 198 742 336 521 
Q 474 301 688 166 
Q 902 32 1177 -25 
Q 1453 -83 1741 -83 
Q 2022 -83 2294 -28 
Q 2566 26 2777 160 
Q 2989 294 3120 515 
Q 3251 736 3251 1062 
Q 3251 1293 3161 1449 
Q 3072 1606 2925 1712 
Q 2778 1818 2589 1882 
Q 2400 1946 2202 1990 
Q 2010 2035 1824 2073 
Q 1638 2112 1494 2160 
Q 1350 2208 1260 2285 
Q 1171 2362 1171 2483 
Q 1171 2586 1222 2646 
Q 1274 2707 1347 2739 
Q 1421 2771 1510 2780 
Q 1600 2790 1677 2790 
Q 1920 2790 2099 2697 
Q 2278 2605 2298 2342 
L 3162 2342 
Q 3136 2650 3005 2851 
Q 2874 3053 2675 3174 
Q 2477 3296 2224 3347 
Q 1971 3398 1702 3398 
Q 1434 3398 1178 3350 
Q 922 3302 717 3184 
Q 512 3066 387 2861 
Q 262 2656 262 2336 
Q 262 2118 352 1968 
Q 442 1818 589 1718 
Q 736 1619 925 1558 
Q 1114 1498 1312 1453 
Q 1798 1350 2070 1248 
Q 2342 1146 2342 941 
Q 2342 819 2284 739 
Q 2227 659 2140 611 
Q 2054 563 1948 540 
Q 1843 518 1747 518 
Q 1613 518 1488 550 
Q 1363 582 1267 649 
Q 1171 717 1110 822 
Q 1050 928 1050 1075 
z
" transform="scale(0.015625)"/>
     <path id="HelveticaNeue-Bold-5b" d="M 1498 3309 
L 1498 4301 
L 589 4301 
L 589 3309 
L 38 3309 
L 38 2701 
L 589 2701 
L 589 749 
Q 589 499 672 345 
Q 755 192 899 109 
Q 1043 26 1232 -3 
Q 1421 -32 1632 -32 
Q 1766 -32 1907 -25 
Q 2048 -19 2163 0 
L 2163 704 
Q 2099 691 2028 684 
Q 1958 678 1882 678 
Q 1651 678 1574 755 
Q 1498 832 1498 1062 
L 1498 2701 
L 2163 2701 
L 2163 3309 
L 1498 3309 
z
" transform="scale(0.015625)"/>
     <path id="HelveticaNeue-Bold-5c" d="M 3450 0 
L 3450 3309 
L 2541 3309 
L 2541 1574 
Q 2541 1069 2374 848 
Q 2208 627 1837 627 
Q 1510 627 1382 828 
Q 1254 1030 1254 1440 
L 1254 3309 
L 346 3309 
L 346 1274 
Q 346 966 400 713 
Q 454 461 588 285 
Q 723 109 956 13 
Q 1190 -83 1555 -83 
Q 1843 -83 2118 45 
Q 2394 173 2566 461 
L 2586 461 
L 2586 0 
L 3450 0 
z
" transform="scale(0.015625)"/>
     <path id="HelveticaNeue-Bold-49" d="M 2771 1651 
Q 2771 1446 2726 1254 
Q 2682 1062 2586 915 
Q 2490 768 2346 681 
Q 2202 595 1997 595 
Q 1798 595 1651 681 
Q 1504 768 1408 915 
Q 1312 1062 1267 1254 
Q 1222 1446 1222 1651 
Q 1222 1862 1267 2054 
Q 1312 2246 1408 2393 
Q 1504 2541 1651 2627 
Q 1798 2714 1997 2714 
Q 2202 2714 2346 2627 
Q 2490 2541 2586 2393 
Q 2682 2246 2726 2054 
Q 2771 1862 2771 1651 
z
M 346 4570 
L 346 0 
L 1210 0 
L 1210 422 
L 1222 422 
Q 1370 147 1658 32 
Q 1946 -83 2310 -83 
Q 2560 -83 2803 19 
Q 3046 122 3241 333 
Q 3437 544 3558 873 
Q 3680 1203 3680 1658 
Q 3680 2112 3558 2441 
Q 3437 2771 3241 2982 
Q 3046 3194 2803 3296 
Q 2560 3398 2310 3398 
Q 2003 3398 1718 3280 
Q 1434 3162 1267 2906 
L 1254 2906 
L 1254 4570 
L 346 4570 
z
" transform="scale(0.015625)"/>
     <path id="HelveticaNeue-Bold-59" d="M 346 3309 
L 346 0 
L 1254 0 
L 1254 1491 
Q 1254 1715 1299 1907 
Q 1344 2099 1449 2243 
Q 1555 2387 1728 2470 
Q 1901 2554 2150 2554 
Q 2234 2554 2323 2544 
Q 2413 2534 2477 2522 
L 2477 3366 
Q 2368 3398 2278 3398 
Q 2106 3398 1946 3347 
Q 1786 3296 1645 3203 
Q 1504 3110 1395 2979 
Q 1286 2848 1222 2694 
L 1210 2694 
L 1210 3309 
L 346 3309 
z
" transform="scale(0.015625)"/>
     <path id="HelveticaNeue-Bold-52" d="M 429 4570 
L 429 0 
L 1338 0 
L 1338 1139 
L 1690 1478 
L 2598 0 
L 3699 0 
L 2310 2093 
L 3558 3309 
L 2483 3309 
L 1338 2118 
L 1338 4570 
L 429 4570 
z
" transform="scale(0.015625)"/>
     <path id="HelveticaNeue-Bold-4d" d="M 544 2701 
L 544 0 
L 1453 0 
L 1453 2701 
L 2080 2701 
L 2080 3309 
L 1453 3309 
L 1453 3507 
Q 1453 3712 1533 3798 
Q 1613 3885 1798 3885 
Q 1971 3885 2131 3866 
L 2131 4544 
Q 2016 4550 1894 4560 
Q 1773 4570 1651 4570 
Q 1094 4570 819 4288 
Q 544 4006 544 3565 
L 544 3309 
L 0 3309 
L 0 2701 
L 544 2701 
z
" transform="scale(0.015625)"/>
     <path id="HelveticaNeue-Bold-5e" d="M 4128 0 
L 5171 3309 
L 4237 3309 
L 3629 1069 
L 3616 1069 
L 3053 3309 
L 2170 3309 
L 1619 1062 
L 1606 1062 
L 998 3309 
L 38 3309 
L 1088 0 
L 2029 0 
L 2592 2221 
L 2605 2221 
L 3194 0 
L 4128 0 
z
" transform="scale(0.015625)"/>
     <path id="HelveticaNeue-Bold-4b" d="M 2694 1664 
Q 2694 1459 2656 1267 
Q 2618 1075 2528 924 
Q 2438 774 2288 684 
Q 2138 595 1914 595 
Q 1702 595 1552 688 
Q 1402 781 1302 931 
Q 1203 1082 1158 1274 
Q 1114 1466 1114 1658 
Q 1114 1862 1155 2051 
Q 1197 2240 1289 2387 
Q 1382 2534 1536 2624 
Q 1690 2714 1914 2714 
Q 2138 2714 2285 2624 
Q 2432 2534 2525 2390 
Q 2618 2246 2656 2057 
Q 2694 1869 2694 1664 
z
M 2707 422 
L 2707 0 
L 3571 0 
L 3571 4570 
L 2662 4570 
L 2662 2906 
L 2650 2906 
Q 2496 3149 2230 3273 
Q 1965 3398 1670 3398 
Q 1306 3398 1030 3254 
Q 755 3110 572 2873 
Q 390 2637 297 2326 
Q 205 2016 205 1683 
Q 205 1338 297 1018 
Q 390 698 572 451 
Q 755 205 1036 61 
Q 1318 -83 1690 -83 
Q 2016 -83 2275 35 
Q 2534 154 2694 422 
L 2707 422 
z
" transform="scale(0.015625)"/>
     <path id="HelveticaNeue-Bold-50" d="M 1280 3821 
L 1280 4570 
L 371 4570 
L 371 3821 
L 1280 3821 
z
M 371 3309 
L 371 0 
L 1280 0 
L 1280 3309 
L 371 3309 
z
" transform="scale(0.015625)"/>
     <path id="HelveticaNeue-Bold-48" d="M 307 2291 
Q 326 2611 467 2822 
Q 608 3034 825 3162 
Q 1043 3290 1315 3344 
Q 1587 3398 1862 3398 
Q 2112 3398 2368 3363 
Q 2624 3328 2835 3225 
Q 3046 3123 3180 2940 
Q 3315 2758 3315 2458 
L 3315 736 
Q 3315 512 3340 307 
Q 3366 102 3430 0 
L 2509 0 
Q 2483 77 2467 157 
Q 2451 237 2445 320 
Q 2227 96 1932 6 
Q 1638 -83 1331 -83 
Q 1094 -83 889 -25 
Q 685 32 531 153 
Q 378 275 291 460 
Q 205 646 205 902 
Q 205 1184 304 1366 
Q 403 1549 560 1657 
Q 717 1766 918 1820 
Q 1120 1875 1325 1907 
Q 1530 1939 1728 1958 
Q 1926 1978 2080 2016 
Q 2234 2054 2323 2128 
Q 2413 2202 2406 2342 
Q 2406 2490 2358 2576 
Q 2310 2662 2230 2710 
Q 2150 2758 2044 2774 
Q 1939 2790 1818 2790 
Q 1549 2790 1395 2675 
Q 1242 2560 1216 2291 
L 307 2291 
z
M 2406 1619 
Q 2349 1568 2262 1539 
Q 2176 1510 2077 1491 
Q 1978 1472 1869 1459 
Q 1760 1446 1651 1427 
Q 1549 1408 1449 1376 
Q 1350 1344 1276 1289 
Q 1203 1235 1158 1152 
Q 1114 1069 1114 941 
Q 1114 819 1158 736 
Q 1203 653 1280 605 
Q 1357 557 1459 537 
Q 1562 518 1670 518 
Q 1939 518 2086 608 
Q 2234 698 2304 822 
Q 2374 947 2390 1075 
Q 2406 1203 2406 1280 
L 2406 1619 
z
" transform="scale(0.015625)"/>
     <path id="HelveticaNeue-Bold-4a" d="M 2598 2144 
L 3488 2144 
Q 3469 2464 3334 2697 
Q 3200 2931 2985 3088 
Q 2771 3245 2499 3321 
Q 2227 3398 1933 3398 
Q 1530 3398 1216 3264 
Q 902 3130 684 2890 
Q 467 2650 355 2320 
Q 243 1990 243 1606 
Q 243 1235 364 924 
Q 486 614 704 390 
Q 922 166 1232 41 
Q 1542 -83 1914 -83 
Q 2573 -83 2995 262 
Q 3418 608 3507 1267 
L 2630 1267 
Q 2586 960 2410 777 
Q 2234 595 1907 595 
Q 1696 595 1549 691 
Q 1402 787 1315 937 
Q 1229 1088 1190 1273 
Q 1152 1459 1152 1638 
Q 1152 1824 1190 2013 
Q 1229 2202 1321 2358 
Q 1414 2515 1561 2614 
Q 1709 2714 1926 2714 
Q 2509 2714 2598 2144 
z
" transform="scale(0.015625)"/>
     <path id="HelveticaNeue-Bold-13" d="M 390 986 
L 390 0 
L 851 0 
Q 858 -102 826 -201 
Q 794 -301 730 -381 
Q 666 -461 579 -518 
Q 493 -576 397 -595 
L 397 -1056 
Q 602 -1024 784 -937 
Q 966 -851 1100 -716 
Q 1235 -582 1315 -400 
Q 1395 -218 1395 0 
L 1395 986 
L 390 986 
z
" transform="scale(0.015625)"/>
    </defs>
    <use xlink:href="#HelveticaNeue-Bold-3b"/>
    <use xlink:href="#HelveticaNeue-Bold-4f" transform="translate(61.09375 0)"/>
    <use xlink:href="#HelveticaNeue-Bold-4c" transform="translate(120.390625 0)"/>
    <use xlink:href="#HelveticaNeue-Bold-3" transform="translate(177.796875 0)"/>
    <use xlink:href="#HelveticaNeue-Bold-53" transform="translate(205.59375 0)"/>
    <use xlink:href="#HelveticaNeue-Bold-56" transform="translate(231.390625 0)"/>
    <use xlink:href="#HelveticaNeue-Bold-55" transform="translate(292.484375 0)"/>
    <use xlink:href="#HelveticaNeue-Bold-4e" transform="translate(351.78125 0)"/>
    <use xlink:href="#HelveticaNeue-Bold-4c" transform="translate(412.875 0)"/>
    <use xlink:href="#HelveticaNeue-Bold-5a" transform="translate(470.28125 0)"/>
    <use xlink:href="#HelveticaNeue-Bold-5b" transform="translate(523.984375 0)"/>
    <use xlink:href="#HelveticaNeue-Bold-3" transform="translate(559.1875 0)"/>
    <use xlink:href="#HelveticaNeue-Bold-5c" transform="translate(586.984375 0)"/>
    <use xlink:href="#HelveticaNeue-Bold-55" transform="translate(646.28125 0)"/>
    <use xlink:href="#HelveticaNeue-Bold-49" transform="translate(705.578125 0)"/>
    <use xlink:href="#HelveticaNeue-Bold-59" transform="translate(766.671875 0)"/>
    <use xlink:href="#HelveticaNeue-Bold-56" transform="translate(803.78125 0)"/>
    <use xlink:href="#HelveticaNeue-Bold-52" transform="translate(864.875 0)"/>
    <use xlink:href="#HelveticaNeue-Bold-4c" transform="translate(922.28125 0)"/>
    <use xlink:href="#HelveticaNeue-Bold-55" transform="translate(979.6875 0)"/>
    <use xlink:href="#HelveticaNeue-Bold-3" transform="translate(1038.984375 0)"/>
    <use xlink:href="#HelveticaNeue-Bold-59" transform="translate(1066.78125 0)"/>
    <use xlink:href="#HelveticaNeue-Bold-5c" transform="translate(1105.6875 0)"/>
    <use xlink:href="#HelveticaNeue-Bold-55" transform="translate(1164.984375 0)"/>
    <use xlink:href="#HelveticaNeue-Bold-3" transform="translate(1224.28125 0)"/>
    <use xlink:href="#HelveticaNeue-Bold-56" transform="translate(1252.078125 0)"/>
    <use xlink:href="#HelveticaNeue-Bold-4d" transform="translate(1313.171875 0)"/>
    <use xlink:href="#HelveticaNeue-Bold-3" transform="translate(1346.46875 0)"/>
    <use xlink:href="#HelveticaNeue-Bold-5e" transform="translate(1374.265625 0)"/>
    <use xlink:href="#HelveticaNeue-Bold-56" transform="translate(1455.671875 0)"/>
    <use xlink:href="#HelveticaNeue-Bold-59" transform="translate(1516.765625 0)"/>
    <use xlink:href="#HelveticaNeue-Bold-4b" transform="translate(1553.875 0)"/>
    <use xlink:href="#HelveticaNeue-Bold-5a" transform="translate(1614.96875 0)"/>
    <use xlink:href="#HelveticaNeue-Bold-3" transform="translate(1668.671875 0)"/>
    <use xlink:href="#HelveticaNeue-Bold-50" transform="translate(1696.46875 0)"/>
    <use xlink:href="#HelveticaNeue-Bold-55" transform="translate(1722.265625 0)"/>
    <use xlink:href="#HelveticaNeue-Bold-3" transform="translate(1781.5625 0)"/>
    <use xlink:href="#HelveticaNeue-Bold-4c" transform="translate(1809.359375 0)"/>
    <use xlink:href="#HelveticaNeue-Bold-48" transform="translate(1866.765625 0)"/>
    <use xlink:href="#HelveticaNeue-Bold-4a" transform="translate(1924.171875 0)"/>
    <use xlink:href="#HelveticaNeue-Bold-4f" transform="translate(1981.578125 0)"/>
    <use xlink:href="#HelveticaNeue-Bold-3" transform="translate(2040.875 0)"/>
    <use xlink:href="#HelveticaNeue-Bold-5a" transform="translate(2068.671875 0)"/>
    <use xlink:href="#HelveticaNeue-Bold-4c" transform="translate(2122.375 0)"/>
    <use xlink:href="#HelveticaNeue-Bold-55" transform="translate(2179.78125 0)"/>
    <use xlink:href="#HelveticaNeue-Bold-5b" transform="translate(2239.078125 0)"/>
    <use xlink:href="#HelveticaNeue-Bold-4c" transform="translate(2274.28125 0)"/>
    <use xlink:href="#HelveticaNeue-Bold-55" transform="translate(2331.6875 0)"/>
    <use xlink:href="#HelveticaNeue-Bold-4a" transform="translate(2390.984375 0)"/>
    <use xlink:href="#HelveticaNeue-Bold-4c" transform="translate(2448.390625 0)"/>
    <use xlink:href="#HelveticaNeue-Bold-13" transform="translate(2505.796875 0)"/>
    <use xlink:href="#HelveticaNeue-Bold-3" transform="translate(2533.59375 0)"/>
    <use xlink:href="#HelveticaNeue-Bold-50" transform="translate(2561.390625 0)"/>
    <use xlink:href="#HelveticaNeue-Bold-55" transform="translate(2587.1875 0)"/>
    <use xlink:href="#HelveticaNeue-Bold-3" transform="translate(2646.484375 0)"/>
    <use xlink:href="#HelveticaNeue-Bold-56" transform="translate(2674.28125 0)"/>
    <use xlink:href="#HelveticaNeue-Bold-59" transform="translate(2735.375 0)"/>
    <use xlink:href="#HelveticaNeue-Bold-4b" transform="translate(2772.484375 0)"/>
    <use xlink:href="#HelveticaNeue-Bold-4c" transform="translate(2833.578125 0)"/>
    <use xlink:href="#HelveticaNeue-Bold-59" transform="translate(2890.984375 0)"/>
   </g>
  </g>
 </g>
 <defs>
  <clipPath id="p6fbd6c1e7e">
   <rect x="50.4505" y="71.6275" width="465.422465" height="117.63375"/>
  </clipPath>
  <clipPath id="p4c7547e153">
   <rect x="50.4505" y="230.73125" width="465.422465" height="117.63375"/>
  </clipPath>
 </defs>
</svg>
